<svg width="392" height="422" viewBox="0 0 392 422" fill="none" xmlns="http://www.w3.org/2000/svg">
<g clip-path="url(#clip0_0_416)">
<path d="M366.532 138.643L322.253 145.582L314.005 92.0911L358.284 85.2963L359.876 94.9825" stroke="#241814" stroke-width="0.5" stroke-miterlimit="10"/>
<path d="M381.255 91.7266L336.922 98.5611L345.175 151.998L389.508 145.163L381.255 91.7266Z" stroke="#241814" stroke-width="0.5" stroke-miterlimit="10"/>
<path d="M386.501 124.33H365.375C362.336 124.33 359.876 126.788 359.876 129.824V133.583H320.372C316.899 133.583 314.005 136.474 314.005 139.944V185.628C314.005 189.098 316.899 191.989 320.372 191.989H385.778C389.251 191.989 392.145 189.098 392.145 185.628V149.052V139.944V129.824C392 126.788 389.54 124.33 386.501 124.33Z" fill="#020935"/>
<path d="M344.248 163.653V169.87H361.757V163.653" stroke="#F2EEEB" stroke-width="0.5" stroke-miterlimit="10"/>
<path d="M352.93 156.714V165.677" stroke="#F2EEEB" stroke-width="0.5" stroke-miterlimit="10"/>
<path d="M349.168 162.497L352.93 165.677L356.982 162.497" stroke="#F2EEEB" stroke-width="0.5" stroke-miterlimit="10"/>
<path d="M324.424 116.813L339.473 114.499" stroke="#241814" stroke-width="0.5" stroke-miterlimit="10"/>
<path d="M325.726 123.029L340.341 120.861" stroke="#241814" stroke-width="0.5" stroke-miterlimit="10"/>
<path d="M326.884 129.246L341.354 127.077" stroke="#241814" stroke-width="0.5" stroke-miterlimit="10"/>
<path d="M323.266 142.546C323.411 142.546 323.411 142.546 323.266 142.546C323.556 142.546 323.556 142.691 323.7 142.835C323.556 143.847 323.411 144.859 323.266 146.016C323.411 145.582 323.7 145.293 323.845 144.859C323.99 144.57 324.134 144.57 324.424 144.57C324.568 144.57 324.858 144.859 324.713 145.148C323.7 148.329 323.845 152.232 321.819 155.124C321.674 155.268 321.53 155.413 321.385 155.557C320.661 158.304 318.491 160.328 315.597 160.039C315.452 160.184 315.307 160.328 315.018 160.184C312.848 158.304 311.69 155.702 312.124 152.811C312.848 149.052 316.176 147.606 318.057 144.57C318.057 144.425 318.202 144.425 318.346 144.425C318.636 144.425 318.925 144.57 318.78 145.004C318.491 146.305 318.057 147.461 317.478 148.618C319.359 147.172 320.806 145.727 320.661 143.269C320.661 142.98 320.806 142.835 321.096 142.835C321.24 142.835 321.53 142.835 321.53 143.124C321.674 143.992 321.819 144.715 321.674 145.582C322.109 144.715 322.398 143.703 322.832 142.835C322.977 142.546 323.121 142.546 323.266 142.546Z" fill="#EFCCBC"/>
<path d="M113.736 147.895C113.158 146.883 112 148.763 111.132 149.919C110.698 149.196 109.974 148.04 109.395 147.461C107.08 145.004 100.569 142.691 100.569 142.691C100.134 142.546 99.9897 143.269 100.424 143.414C100.424 143.414 103.028 145.437 104.186 146.305C104.62 146.739 104.91 147.028 105.344 147.461C104.475 147.028 103.318 147.172 102.884 148.04C101.726 147.895 101.003 149.485 101.147 150.497C100.858 150.497 100.569 150.642 100.424 150.931C99.845 151.509 99.9897 152.377 100.279 152.955C101.003 155.702 103.173 157.726 105.923 158.449H106.067C108.238 158.304 110.408 158.015 112.145 156.714C112.289 156.714 112.434 156.714 112.434 156.569C112.579 156.569 112.724 156.425 112.724 156.28C112.579 154.401 112.868 152.666 113.302 150.787C113.447 150.208 114.171 148.618 113.736 147.895Z" fill="#EFCCBC"/>
<path d="M242.233 255.455C243.101 254.443 243.969 253.287 244.693 251.841C249.468 242.733 260.176 196.037 259.452 182.881C258.729 169.725 260.465 154.69 227.184 151.799C194.047 148.907 175.669 155.702 170.749 160.184C165.106 165.388 163.225 173.05 165.54 193.724C167.566 211.651 171.039 242.733 182.036 255.455H242.233Z" fill="#651FFF"/>
<path d="M169.592 214.397C169.592 214.397 157.871 255.311 147.163 255.455C136.455 255.6 132.692 255.455 132.692 255.455C132.692 255.455 109.685 239.986 104.186 159.027L114.315 155.557C114.315 155.557 135.587 193.146 142.098 218.445C142.098 218.445 145.716 165.244 181.023 155.413L169.592 214.397Z" fill="#651FFF"/>
<path d="M255.545 214.397C255.545 214.397 267.266 255.311 277.974 255.455C288.682 255.6 292.445 255.455 292.445 255.455C292.445 255.455 315.452 239.986 320.951 159.027L310.822 155.557C310.822 155.557 289.55 193.146 283.039 218.445C283.039 218.445 279.421 165.244 244.114 155.413L255.545 214.397Z" fill="#651FFF"/>
<path d="M203.235 121.897L202.359 138.065L215.218 138.761L216.095 122.593L203.235 121.897Z" fill="#EFCCBC"/>
<path d="M203.308 121.873C203.308 121.873 198.388 132.715 199.256 137.775C199.835 141.245 204.32 142.546 207.649 140.522C208.806 139.799 209.819 138.787 210.398 137.197L203.308 121.873Z" fill="#EFCCBC"/>
<path d="M198.966 151.509C198.966 151.509 195.783 156.714 199.979 160.184C204.176 163.653 214.739 161.918 217.344 151.365C217.488 151.22 202.15 148.907 198.966 151.509Z" fill="#EFCCBC"/>
<path d="M198.966 151.509C198.966 151.509 202.439 144.715 202.15 132.282L214.884 131.848C214.884 131.848 214.739 142.112 217.344 151.365C217.488 151.22 203.886 153.967 198.966 151.509Z" fill="#EFCCBC"/>
<path d="M224.579 252.13H141.085L137.034 193.146H220.527L224.579 252.13Z" fill="#D7D4D4"/>
<path d="M241.075 255.455H141.085V252.13H224.579L241.075 253.287V255.455Z" fill="#D7D4D4"/>
<path d="M224.579 252.13H141.085V253.287H224.579V252.13Z" fill="#BDB8B8"/>
<path d="M224.579 253.287L241.075 254.299V255.455L224.579 255.6V253.287Z" fill="#BDB8B8"/>
<path d="M183.049 220.469C183.049 223.505 180.879 225.963 177.984 225.963C175.235 225.963 172.775 223.65 172.775 220.614C172.775 217.578 174.946 215.12 177.84 215.12C180.589 215.12 182.904 217.578 183.049 220.469Z" fill="#F2EEEB"/>
<path d="M220.527 193.146L221.395 193.435L225.592 252.13H224.579L220.527 193.146Z" fill="#BDB8B8"/>
<path d="M84.2171 158.449L20.5479 164.376V87.6095L84.2171 81.6821V158.449Z" fill="white"/>
<path d="M150.057 92.6694L95.5039 95.1271V29.6369L150.057 27.0346V92.6694Z" fill="white"/>
<path d="M77.9949 232.469L5.93286 234.204V153.967L77.9949 152.232V232.469Z" fill="white"/>
<path d="M79.0078 181.725H55.8553C52.5271 181.725 49.7778 184.471 49.7778 187.796V191.989H6.94574C3.18346 191.989 0 195.025 0 198.928V248.66C0 252.419 3.03876 255.6 6.94574 255.6H78.1395C81.9018 255.6 85.0853 252.564 85.0853 248.66V208.904V198.928V187.796C84.9406 184.471 82.3359 181.725 79.0078 181.725Z" fill="#00E5FF"/>
<path d="M31.5452 223.505V230.734H52.3824V223.505" stroke="#241814" stroke-width="0.5" stroke-miterlimit="10"/>
<path d="M41.9639 227.698V217.144" stroke="#241814" stroke-width="0.5" stroke-miterlimit="10"/>
<path d="M37.478 220.758L41.9638 217.144L46.739 220.758" stroke="#241814" stroke-width="0.5" stroke-miterlimit="10"/>
<path d="M84.9407 255.455H363.204" stroke="#241814" stroke-width="0.5" stroke-miterlimit="10"/>
<path d="M33.137 183.17L12.2998 184.038V163.364L33.137 162.497V183.17Z" fill="#EBEDF2"/>
<path d="M70.9044 164.087L37.478 165.533V162.352L70.9044 160.906V164.087Z" fill="#EBEDF2"/>
<path d="M70.9044 174.207L37.478 175.653V172.328L70.9044 170.882V174.207Z" fill="#EBEDF2"/>
<path d="M75.2454 94.9825L29.5193 99.8979V96.5728L75.2454 91.802V94.9825Z" fill="#EBEDF2"/>
<path d="M142.822 58.9846L102.594 61.1531V57.9726L142.822 55.804V58.9846Z" fill="#EBEDF2"/>
<path d="M142.822 67.3696L102.594 69.5382V66.2131L142.822 64.0445V67.3696Z" fill="#EBEDF2"/>
<path d="M142.822 75.7547L102.594 77.7787V74.5982L142.822 72.4296V75.7547Z" fill="#EBEDF2"/>
<path d="M142.822 83.9952L102.594 86.1638V82.8386L142.822 80.6701V83.9952Z" fill="#EBEDF2"/>
<path d="M75.2454 103.223L29.5193 108.138V104.813L75.2454 99.8979V103.223Z" fill="#EBEDF2"/>
<path d="M75.2454 111.464L29.5193 116.234V113.054L75.2454 108.138V111.464Z" fill="#EBEDF2"/>
<path d="M75.2454 119.559L29.5193 124.475V121.15L75.2454 116.234V119.559Z" fill="#EBEDF2"/>
<path d="M202.439 0.289139H176.827V61.876H202.439V0.289139Z" fill="white"/>
<path d="M228.052 0.289139H176.827V61.876H228.052V0.289139Z" stroke="#241814" stroke-width="0.5" stroke-miterlimit="10"/>
<path d="M204.755 124.909C204.755 124.909 203.308 126.354 201.426 126.21L201.137 126.933C201.137 126.933 198.822 125.776 198.822 122.162C198.822 118.547 203.018 117.825 205.189 119.27C205.189 119.27 209.675 117.246 213.871 118.114C218.212 118.981 218.646 123.318 218.357 125.342C217.923 127.366 215.607 131.848 215.607 132.282C215.607 132.282 212.134 127.511 211.845 125.631C211.845 125.631 206.636 127.222 204.755 124.909Z" fill="#020935"/>
<path d="M200.269 139.799C200.269 139.799 197.809 148.907 194.191 152.232L198.966 151.654C198.966 151.654 201.137 148.04 201.86 140.811C201.716 140.956 200.992 140.667 200.269 139.799Z" fill="#020935"/>
<path d="M218.501 125.342C218.501 125.342 216.62 145.148 225.737 151.654C225.737 151.654 219.08 151.365 217.488 151.22C217.488 151.22 211.411 152.521 213.292 142.112C213.292 142.112 210.398 132.426 214.884 131.125C214.884 131.125 214.16 124.764 218.501 125.342Z" fill="#020935"/>
<path d="M213.726 126.933C213.726 126.933 215.462 125.487 216.765 126.933C217.922 128.234 217.054 131.559 213.147 131.27C213.147 131.27 212.279 129.246 213.726 126.933Z" fill="#EFCCBC"/>
<path d="M20.5479 151.654L82.0466 147.751V158.593L77.9949 159.027V152.232L20.5479 153.533V151.654Z" fill="#F2EEEB"/>
<path d="M58.0259 135.896V139.221L75.2455 137.342V134.016L58.0259 135.896Z" fill="#EBEDF2"/>
<path d="M121.116 36.4317L102.594 37.2991V53.4909L121.116 52.4789V36.4317Z" fill="#EBEDF2"/>
<path d="M202.439 30.5043H181.747V33.8294H202.439V30.5043Z" fill="#EBEDF2"/>
<path d="M202.439 39.0339H181.747V42.359H202.439V39.0339Z" fill="#EBEDF2"/>
<path d="M190.284 10.2645C190.284 12.5776 188.403 14.6016 185.943 14.6016C183.628 14.6016 181.602 12.7222 181.602 10.2645C181.602 7.95135 183.483 5.92737 185.943 5.92737C188.258 5.92737 190.284 7.80678 190.284 10.2645Z" fill="#EBEDF2"/>
<path d="M190.284 21.6855C190.284 23.9986 188.403 26.0226 185.943 26.0226C183.628 26.0226 181.602 24.1432 181.602 21.6855C181.602 19.3724 183.483 17.3484 185.943 17.3484C188.258 17.493 190.284 19.3724 190.284 21.6855Z" fill="#EBEDF2"/>
<path d="M256.848 87.8986L308.072 85.2963V23.7095L256.848 26.1672V87.8986Z" stroke="#241814" stroke-width="0.5" stroke-miterlimit="10"/>
<path d="M261.768 49.1538L302.574 47.1298" stroke="#241814" stroke-width="0.5" stroke-miterlimit="10"/>
<path d="M302.574 40.1905L261.768 42.2145V33.6848L302.574 31.8054V40.1905Z" stroke="#241814" stroke-width="0.5" stroke-miterlimit="10"/>
<path d="M261.768 56.0932L302.574 54.0692" stroke="#241814" stroke-width="0.5" stroke-miterlimit="10"/>
<path d="M261.768 62.888L302.574 61.0086" stroke="#241814" stroke-width="0.5" stroke-miterlimit="10"/>
<path d="M261.768 69.8273L302.574 67.8034" stroke="#241814" stroke-width="0.5" stroke-miterlimit="10"/>
<path d="M261.768 76.7667L302.574 74.7427" stroke="#241814" stroke-width="0.5" stroke-miterlimit="10"/>
<path d="M350.326 103.657L368.703 100.91" stroke="#241814" stroke-width="0.5" stroke-miterlimit="10"/>
<path d="M321.819 104.524L337.447 102.066" stroke="#241814" stroke-width="0.5" stroke-miterlimit="10"/>
<path d="M351.339 110.018L369.86 107.126" stroke="#241814" stroke-width="0.5" stroke-miterlimit="10"/>
<path d="M323.121 110.741L338.46 108.283" stroke="#241814" stroke-width="0.5" stroke-miterlimit="10"/>
<path d="M202.439 32.0946H222.264" stroke="#241814" stroke-width="0.5" stroke-miterlimit="10"/>
<path d="M202.439 40.6242H222.264" stroke="#241814" stroke-width="0.5" stroke-miterlimit="10"/>
<path d="M148.031 173.05C148.031 157.871 148.031 141.39 148.031 141.245C148.031 130.98 139.204 122.595 128.207 122.595C121.406 122.595 115.328 125.921 111.855 130.836" stroke="#241814" stroke-width="0.5" stroke-miterlimit="10"/>
<path d="M111.566 127.8L111.855 130.691L114.894 130.547" stroke="#241814" stroke-width="0.5" stroke-miterlimit="10"/>
<path d="M59.1834 63.9L59.4728 60.7194L56.4341 60.2857" stroke="#241814" stroke-width="0.5" stroke-miterlimit="10"/>
<path d="M334.987 63.3217L338.026 63.6108L338.46 60.7194" stroke="#241814" stroke-width="0.5" stroke-miterlimit="10"/>
<path d="M147.742 9.83076L150.057 7.66221L148.031 5.49366" stroke="#241814" stroke-width="0.5" stroke-miterlimit="10"/>
<path d="M248.31 9.83076L250.625 7.66221L248.599 5.49366" stroke="#241814" stroke-width="0.5" stroke-miterlimit="10"/>
<path d="M287.524 100.332H241.798C238.615 100.332 236.01 102.934 236.01 106.114V119.126V133.438L244.114 124.764H287.524C290.708 124.764 293.313 122.162 293.313 118.981V105.97C293.313 102.934 290.708 100.332 287.524 100.332Z" fill="#00E5FF"/>
<path d="M163.514 111.031C164.074 111.031 164.527 110.577 164.527 110.019C164.527 109.46 164.074 109.007 163.514 109.007C162.955 109.007 162.501 109.46 162.501 110.019C162.501 110.577 162.955 111.031 163.514 111.031Z" stroke="#241814" stroke-width="0.5" stroke-miterlimit="10"/>
<path d="M172.341 110.018C172.341 110.596 171.907 111.03 171.328 111.03C170.749 111.03 170.315 110.596 170.315 110.018C170.315 109.44 170.749 109.006 171.328 109.006C171.762 108.861 172.341 109.44 172.341 110.018Z" stroke="#241814" stroke-width="0.5" stroke-miterlimit="10"/>
<path d="M180.01 110.018C180.01 110.596 179.576 111.03 178.997 111.03C178.418 111.03 177.984 110.596 177.984 110.018C177.984 109.44 178.418 109.006 178.997 109.006C179.576 108.861 180.01 109.44 180.01 110.018Z" stroke="#241814" stroke-width="0.5" stroke-miterlimit="10"/>
<path d="M246.574 110.018H285.643" stroke="#241814" stroke-width="0.5" stroke-miterlimit="10"/>
<path d="M246.574 115.656H285.643" stroke="#241814" stroke-width="0.5" stroke-miterlimit="10"/>
<path d="M352.062 255.6H95.7932V259.214H352.062V255.6Z" stroke="#241814" stroke-width="0.5" stroke-miterlimit="10"/>
<path d="M222.408 396.989H201.571V417.229H222.408V396.989Z" stroke="#241814" stroke-width="0.5" stroke-miterlimit="10"/>
<path d="M363.928 415.061H274.935V416.94H363.928V415.061Z" stroke="#241814" stroke-width="0.5" stroke-miterlimit="10"/>
<path d="M362.481 402.628H276.382V415.061H362.481V402.628Z" stroke="#241814" stroke-width="0.5" stroke-miterlimit="10"/>
<path d="M332.816 234.637C332.816 234.637 320.372 231.601 307.638 241.577C297.654 249.528 290.129 261.672 264.806 262.25C264.806 262.25 274.212 286.249 295.338 299.838C295.338 299.838 323.266 294.2 336.868 276.996C345.55 266.009 359.442 267.744 359.442 267.744L332.816 234.637Z" fill="white"/>
<path d="M47.8965 397.423H93.6226L93.0438 400.748L48.1859 399.158L47.8965 397.423Z" fill="#BDB8B8"/>
<path d="M97.3849 392.074H44.1343V397.423H97.3849V392.074Z" stroke="#241814" stroke-width="0.5" stroke-miterlimit="10"/>
<path d="M70.7595 397.423H47.8965L51.6588 416.795H70.7595H89.8603L93.6226 397.423H70.7595Z" stroke="#241814" stroke-width="0.5" stroke-miterlimit="10"/>
<path d="M50.9353 340.462C34.8733 342.92 64.682 392.074 64.682 392.074H66.5632C66.5632 392.074 58.8939 366.774 57.4469 346.245C55.4211 342.342 53.2505 340.029 50.9353 340.462Z" stroke="#241814" stroke-width="0.5" stroke-miterlimit="10"/>
<path d="M66.5632 320.512C45.4366 322.825 66.5632 392.074 66.5632 392.074H68.7337C68.7337 392.074 69.8914 389.038 72.0619 384.556C74.956 365.907 80.8888 318.922 66.5632 320.512Z" stroke="#241814" stroke-width="0.5" stroke-miterlimit="10"/>
<path d="M68.7339 392.074C68.7339 392.074 88.2688 343.065 100.134 356.221C108.817 365.907 72.3515 392.074 72.3515 392.074H68.7339Z" stroke="#241814" stroke-width="0.5" stroke-miterlimit="10"/>
<path d="M64.3927 392.074C64.3927 392.074 42.3979 369.81 37.6227 372.991C29.0852 378.774 60.7752 392.074 60.7752 392.074H64.3927Z" stroke="#241814" stroke-width="0.5" stroke-miterlimit="10"/>
<path d="M78.7183 392.074C78.7183 392.074 91.4521 375.304 94.3462 382.388C95.9379 386.436 81.757 392.074 81.757 392.074H78.7183Z" stroke="#241814" stroke-width="0.5" stroke-miterlimit="10"/>
<path d="M78.4289 371.979C85.5194 352.606 93.6227 327.017 85.0853 332.222C81.0336 334.68 77.9948 341.33 75.6796 349.137C75.2455 362.003 73.3643 376.171 72.062 384.701C73.6537 380.942 75.969 376.46 78.4289 371.979Z" stroke="#241814" stroke-width="0.5" stroke-miterlimit="10"/>
<path d="M51.6589 416.795C51.6589 416.795 68.1551 423.735 111.566 421.566C146.729 419.831 89.8605 416.795 89.8605 416.795H51.6589Z" fill="#020935"/>
<path d="M232.827 417.229V370.244C232.827 370.244 231.525 356.51 241.943 356.076H381.292" stroke="#241814" stroke-width="0.5" stroke-miterlimit="10"/>
<path d="M209.385 407.109C209.385 407.688 208.951 408.121 208.372 408.121C207.793 408.121 207.359 407.688 207.359 407.109C207.359 406.531 207.793 406.097 208.372 406.097C208.951 406.097 209.385 406.531 209.385 407.109Z" fill="#BDB8B8"/>
<path d="M215.752 408.121C216.311 408.121 216.765 407.668 216.765 407.109C216.765 406.55 216.311 406.097 215.752 406.097C215.193 406.097 214.739 406.55 214.739 407.109C214.739 407.668 215.193 408.121 215.752 408.121Z" fill="#BDB8B8"/>
<path d="M211.99 414.338C215.986 414.338 219.225 411.101 219.225 407.109C219.225 403.117 215.986 399.881 211.99 399.881C207.994 399.881 204.755 403.117 204.755 407.109C204.755 411.101 207.994 414.338 211.99 414.338Z" stroke="#241814" stroke-width="0.5" stroke-miterlimit="10"/>
<path d="M255.401 213.241C255.401 213.241 254.532 208.47 254.098 206.735C254.098 206.735 250.77 216.421 253.375 222.638L255.401 213.241Z" fill="#020935"/>
<path d="M283.039 218.445C283.039 218.445 283.473 221.048 282.171 221.337C282.171 221.337 282.605 214.253 282.46 213.096C282.315 213.241 282.894 216.132 283.039 218.445Z" fill="#020935"/>
<path d="M204.465 167.123C204.945 167.123 205.333 166.735 205.333 166.256C205.333 165.777 204.945 165.388 204.465 165.388C203.986 165.388 203.597 165.777 203.597 166.256C203.597 166.735 203.986 167.123 204.465 167.123Z" fill="#F2EEEB"/>
<path d="M204.465 172.038C204.945 172.038 205.333 171.65 205.333 171.171C205.333 170.692 204.945 170.304 204.465 170.304C203.986 170.304 203.597 170.692 203.597 171.171C203.597 171.65 203.986 172.038 204.465 172.038Z" fill="#F2EEEB"/>
<path d="M201.571 417.374L204.755 420.41H227.473V398.146L222.408 396.989V417.374H201.571Z" fill="#020935"/>
<path d="M41.8191 48.8647C41.8191 48.8647 58.4599 37.5882 61.0646 23.4204C63.8139 9.25249 47.1731 29.2032 61.0646 36.1425C67.4315 39.3231 72.3514 31.3717 72.3514 31.3717" stroke="#241814" stroke-width="0.5" stroke-miterlimit="10"/>
<path d="M213.581 127.222L213.437 126.499C212.134 126.643 210.398 127.655 209.53 128.234V127.366H204.61V128.378H203.597V127.366H198.677V131.414H203.597V129.101H204.61V131.414H209.53V128.956C210.109 128.667 212.134 127.366 213.581 127.222ZM203.018 130.836H199.401V128.089H203.018V130.836ZM208.806 130.836H205.189V128.089H208.806V130.836Z" fill="#020935"/>
<path d="M201.716 140.956C201.716 140.956 205.333 142.257 208.517 139.944C208.517 139.944 209.385 149.196 200.124 148.763C200.124 148.618 201.571 143.124 201.716 140.956Z" fill="#CEA697"/>
<path d="M314.005 92.0911C314.005 92.0911 326.594 80.381 324.424 74.5982C322.253 68.8154 316.465 83.9952 327.897 84.5735C339.328 85.0072 339.183 69.9719 335.566 67.9479C331.948 65.924 329.199 82.8386 341.499 81.6821" stroke="#241814" stroke-width="0.5" stroke-miterlimit="10"/>
</g>
<defs>
<clipPath id="clip0_0_416">
<rect width="392" height="422" fill="white"/>
</clipPath>
</defs>
</svg>
