<svg width="986" height="566" viewBox="0 0 986 566" fill="none" xmlns="http://www.w3.org/2000/svg">
<g clip-path="url(#clip0_0_532)">
<path d="M853.069 134.572C871.085 134.572 885.691 119.981 885.691 101.982C885.691 83.9831 871.085 69.3921 853.069 69.3921C835.052 69.3921 820.446 83.9831 820.446 101.982C820.446 119.981 835.052 134.572 853.069 134.572Z" fill="#F8D12E" stroke="#651FFF" stroke-linecap="round" stroke-linejoin="round"/>
<path d="M857.507 54.5382C857.507 56.9769 855.51 58.9722 853.069 58.9722C850.627 58.9722 848.63 56.9769 848.63 54.5382V41.4579C848.63 39.0192 850.627 37.0239 853.069 37.0239C855.51 37.0239 857.507 39.0192 857.507 41.4579V54.5382Z" fill="#F8D12E" stroke="#651FFF" stroke-linecap="round" stroke-linejoin="round"/>
<path d="M822.443 65.1798C824.219 66.9534 824.219 69.6138 822.443 71.3874C820.668 73.161 818.005 73.161 816.229 71.3874L806.909 62.076C805.133 60.3024 805.133 57.642 806.909 55.8684C808.684 54.0948 811.347 54.0948 813.123 55.8684L822.443 65.1798Z" fill="#F8D12E" stroke="#651FFF" stroke-linecap="round" stroke-linejoin="round"/>
<path d="M805.577 97.548C808.018 97.548 810.016 99.5433 810.016 101.982C810.016 104.421 808.018 106.416 805.577 106.416H792.484C790.043 106.416 788.045 104.421 788.045 101.982C788.045 99.5433 790.043 97.548 792.484 97.548H805.577Z" fill="#F8D12E" stroke="#651FFF" stroke-linecap="round" stroke-linejoin="round"/>
<path d="M816.229 132.355C818.005 130.581 820.668 130.581 822.443 132.355C824.219 134.129 824.219 136.789 822.443 138.563L813.123 147.874C811.347 149.648 808.684 149.648 806.909 147.874C805.133 146.1 805.133 143.44 806.909 141.666L816.229 132.355Z" fill="#F8D12E" stroke="#651FFF" stroke-linecap="round" stroke-linejoin="round"/>
<path d="M848.63 149.426C848.63 146.987 850.627 144.992 853.069 144.992C855.51 144.992 857.507 146.987 857.507 149.426V162.506C857.507 164.945 855.51 166.94 853.069 166.94C850.627 166.94 848.63 164.945 848.63 162.506V149.426Z" fill="#F8D12E" stroke="#651FFF" stroke-linecap="round" stroke-linejoin="round"/>
<path d="M883.472 138.563C881.697 136.789 881.697 134.129 883.472 132.355C885.247 130.581 887.91 130.581 889.686 132.355L899.006 141.666C900.782 143.44 900.782 146.1 899.006 147.874C897.231 149.648 894.568 149.648 892.793 147.874L883.472 138.563Z" fill="#F8D12E" stroke="#651FFF" stroke-linecap="round" stroke-linejoin="round"/>
<path d="M900.56 106.416C898.119 106.416 896.121 104.421 896.121 101.982C896.121 99.5433 898.119 97.548 900.56 97.548H913.653C916.095 97.548 918.092 99.5433 918.092 101.982C918.092 104.421 916.095 106.416 913.653 106.416H900.56Z" fill="#F8D12E" stroke="#651FFF" stroke-linecap="round" stroke-linejoin="round"/>
<path d="M889.686 71.6091C887.91 73.3827 885.247 73.3827 883.472 71.6091C881.697 69.8355 881.697 67.1751 883.472 65.4015L892.793 56.0901C894.568 54.3165 897.231 54.3165 899.006 56.0901C900.782 57.8637 900.782 60.5241 899.006 62.2977L889.686 71.6091Z" fill="#F8D12E" stroke="#651FFF" stroke-linecap="round" stroke-linejoin="round"/>
<path d="M171.324 175.143C168.883 175.143 166.22 175.365 164 175.808C155.345 158.072 137.37 145.879 116.287 145.879C88.5469 145.879 65.6889 167.162 63.4697 194.431C61.9163 194.209 60.1409 193.987 58.5874 193.987C42.609 193.987 29.7375 206.846 29.7375 222.808C29.7375 238.771 42.609 251.629 58.5874 251.629C68.352 251.629 161.781 251.629 171.324 251.629C192.406 251.629 209.716 234.559 209.716 213.275C209.716 192.214 192.406 175.143 171.324 175.143Z" fill="#F2FCFF" stroke="#651FFF" stroke-linecap="round" stroke-linejoin="round"/>
<path d="M861.724 113.954C857.951 113.954 854.4 114.397 850.85 115.062C838.2 88.9017 811.569 70.944 780.5 70.944C739.667 70.944 705.934 102.425 702.606 142.553C700.164 142.11 697.723 141.888 695.282 141.888C671.758 141.888 652.673 160.954 652.673 184.454C652.673 207.955 671.758 227.021 695.282 227.021C709.707 227.021 847.299 227.021 861.502 227.021C892.793 227.021 918.092 201.747 918.092 170.487C918.314 139.228 893.015 113.954 861.724 113.954Z" fill="#F2FCFF" stroke="#651FFF" stroke-linecap="round" stroke-linejoin="round"/>
<path d="M759.861 311.488C735.006 376.003 788.711 419.456 788.711 419.456L871.932 202.634C871.932 202.855 784.717 246.53 759.861 311.488Z" fill="#81D678" stroke="#651FFF" stroke-linecap="round" stroke-linejoin="round"/>
<path d="M882.362 358.489C857.507 423.004 788.711 419.456 788.711 419.456L871.932 202.634C871.932 202.855 907.218 293.531 882.362 358.489Z" fill="#00C853" stroke="#651FFF" stroke-linecap="round" stroke-linejoin="round"/>
<path d="M810.238 403.716C768.072 433.867 783.829 483.084 783.829 483.084L925.193 381.767C925.193 381.767 852.625 373.343 810.238 403.716Z" fill="#81D678" stroke="#651FFF" stroke-linecap="round" stroke-linejoin="round"/>
<path d="M867.494 483.528C825.328 513.679 783.829 483.306 783.829 483.306L925.193 381.989C925.193 381.767 909.881 453.155 867.494 483.528Z" fill="#00C853" stroke="#651FFF" stroke-linecap="round" stroke-linejoin="round"/>
<path d="M226.361 311.488C251.216 376.003 197.511 419.456 197.511 419.456L114.29 202.855C114.29 202.855 201.284 246.53 226.361 311.488Z" fill="#81D678" stroke="#651FFF" stroke-linecap="round" stroke-linejoin="round"/>
<path d="M103.86 358.489C128.715 423.004 197.511 419.456 197.511 419.456L114.29 202.855C114.29 202.855 78.7824 293.531 103.86 358.489Z" fill="#00C853" stroke="#651FFF" stroke-linecap="round" stroke-linejoin="round"/>
<path d="M175.762 403.716C217.928 433.867 202.171 483.084 202.171 483.084L60.8066 381.767C61.0286 381.767 133.375 373.343 175.762 403.716Z" fill="#81D678" stroke="#651FFF" stroke-linecap="round" stroke-linejoin="round"/>
<path d="M118.506 483.528C160.672 513.679 202.171 483.306 202.171 483.306L60.8066 381.989C61.0286 381.767 76.1193 453.155 118.506 483.528Z" fill="#00C853" stroke="#651FFF" stroke-linecap="round" stroke-linejoin="round"/>
<path d="M1.10962 496.83H984.89" stroke="#651FFF" stroke-linecap="round" stroke-linejoin="round"/>
<path fill-rule="evenodd" clip-rule="evenodd" d="M915.651 548.042L822.887 528.533C807.131 523.212 789.821 519.221 783.163 519.221H203.059C196.179 519.221 178.869 523.212 163.335 528.533L70.5713 548.042V564.226H70.7932C71.2371 564.67 72.1247 564.892 73.6782 564.892H912.544C914.319 564.892 915.207 564.67 915.429 564.226H915.651V548.042Z" fill="#ECECFE" stroke="#651FFF" stroke-linecap="round" stroke-linejoin="round"/>
<path fill-rule="evenodd" clip-rule="evenodd" d="M575.666 549.594C575.666 553.363 572.781 556.245 569.008 556.245H416.992C413.219 556.245 410.334 553.363 410.334 549.594V514.122C410.334 510.353 413.219 507.471 416.992 507.471H569.008C572.781 507.471 575.666 510.353 575.666 514.122V549.594Z" fill="#86B3DB" stroke="#651FFF" stroke-linecap="round" stroke-linejoin="round"/>
<path fill-rule="evenodd" clip-rule="evenodd" d="M793.15 502.372C793.15 509.245 787.602 514.787 780.722 514.787H200.84C193.96 514.787 188.412 509.245 188.412 502.372V161.398C188.412 154.525 193.96 148.982 200.84 148.982H780.944C787.824 148.982 793.372 154.525 793.372 161.398V502.372H793.15Z" fill="white" stroke="#651FFF" stroke-linecap="round" stroke-linejoin="round"/>
<path d="M780.722 162.506H201.062V486.853H780.722V162.506Z" fill="#ECECFE" stroke="#651FFF" stroke-linecap="round" stroke-linejoin="round"/>
<path fill-rule="evenodd" clip-rule="evenodd" d="M313.354 513.014C313.354 516.783 310.469 519.665 306.697 519.665H247.665C243.893 519.665 241.008 516.783 241.008 513.014V503.481C241.008 499.712 243.893 496.83 247.665 496.83H306.697C310.469 496.83 313.354 499.712 313.354 503.481V513.014Z" fill="#86B3DB" stroke="#651FFF" stroke-linecap="round" stroke-linejoin="round"/>
<path fill-rule="evenodd" clip-rule="evenodd" d="M740.554 513.014C740.554 516.783 737.669 519.665 733.897 519.665H674.865C671.093 519.665 668.208 516.783 668.208 513.014V503.481C668.208 499.712 671.093 496.83 674.865 496.83H733.897C737.669 496.83 740.554 499.712 740.554 503.481V513.014Z" fill="#86B3DB" stroke="#651FFF" stroke-linecap="round" stroke-linejoin="round"/>
<path fill-rule="evenodd" clip-rule="evenodd" d="M883.25 533.188C907.884 541.391 922.309 549.151 912.544 549.151H73.6783C63.9138 549.151 78.3387 541.613 102.972 533.188L163.335 512.792C179.091 507.471 196.401 503.481 203.059 503.481H783.163C790.043 503.481 807.353 507.471 822.887 512.792L883.25 533.188Z" fill="white" stroke="#651FFF" stroke-linecap="round" stroke-linejoin="round"/>
<path fill-rule="evenodd" clip-rule="evenodd" d="M786.048 524.986C787.158 525.429 784.495 525.872 780.057 525.872H759.64C755.201 525.872 750.763 525.429 749.653 524.986L745.437 523.212C744.549 522.769 747.212 522.325 751.651 522.325H771.402C775.84 522.325 780.278 522.769 781.388 523.212L786.048 524.986Z" fill="#651FFF"/>
<path fill-rule="evenodd" clip-rule="evenodd" d="M742.33 524.986C743.217 525.429 740.332 525.872 735.894 525.872H715.033C710.595 525.872 706.156 525.429 705.491 524.986L702.162 523.212C701.274 522.769 704.381 522.325 708.597 522.325H728.792C733.231 522.325 737.447 522.769 738.335 523.212L742.33 524.986Z" fill="#651FFF"/>
<path fill-rule="evenodd" clip-rule="evenodd" d="M698.389 524.986C699.277 525.429 696.17 525.872 691.731 525.872H675.309C670.871 525.872 666.654 525.429 665.988 524.986L663.103 523.212C662.438 522.769 665.545 522.325 669.761 522.325H685.74C690.178 522.325 694.173 522.769 695.06 523.212L698.389 524.986Z" fill="#651FFF"/>
<path fill-rule="evenodd" clip-rule="evenodd" d="M658.665 524.986C659.331 525.429 656.224 525.872 651.785 525.872H633.366C628.927 525.872 624.711 525.429 624.267 524.986L622.048 523.212C621.604 522.769 624.711 522.325 629.149 522.325H646.903C651.342 522.325 655.336 522.769 656.002 523.212L658.665 524.986Z" fill="#651FFF"/>
<path fill-rule="evenodd" clip-rule="evenodd" d="M617.166 524.986C617.609 525.429 614.281 525.872 609.842 525.872H384.591C380.153 525.872 376.824 525.429 377.268 524.986L379.043 523.212C379.487 522.769 383.482 522.325 387.698 522.325H606.291C610.73 522.325 614.503 522.769 614.946 523.212L617.166 524.986Z" fill="#651FFF"/>
<path fill-rule="evenodd" clip-rule="evenodd" d="M370.166 524.986C369.722 525.429 365.728 525.872 361.067 525.872H342.204C337.766 525.872 334.659 525.429 335.103 524.986L337.544 523.212C338.21 522.769 342.204 522.325 346.421 522.325H364.84C369.279 522.325 372.386 522.769 371.942 523.212L370.166 524.986Z" fill="#651FFF"/>
<path fill-rule="evenodd" clip-rule="evenodd" d="M328.001 524.986C327.335 525.429 323.119 525.872 318.68 525.872H299.595C295.157 525.872 292.05 525.429 292.937 524.986L296.266 523.212C296.932 522.769 301.148 522.325 305.587 522.325H324.228C328.667 522.325 331.552 522.769 331.108 523.212L328.001 524.986Z" fill="#651FFF"/>
<path fill-rule="evenodd" clip-rule="evenodd" d="M285.836 524.986C284.948 525.429 280.732 525.872 276.293 525.872H257.874C253.435 525.872 250.55 525.429 251.438 524.986L255.432 523.212C256.32 522.769 260.537 522.325 264.975 522.325H282.729C287.167 522.325 290.052 522.769 289.165 523.212L285.836 524.986Z" fill="#651FFF"/>
<path fill-rule="evenodd" clip-rule="evenodd" d="M244.115 524.986C243.227 525.429 238.788 525.872 234.128 525.872H213.267C208.829 525.872 205.944 525.429 207.054 524.986L211.714 523.212C212.824 522.769 217.262 522.325 221.479 522.325H241.673C246.112 522.325 248.775 522.769 247.887 523.212L244.115 524.986Z" fill="#651FFF"/>
<path fill-rule="evenodd" clip-rule="evenodd" d="M805.134 518.556C809.35 518.556 813.789 518.778 814.898 519.221L820.002 520.995C821.112 521.438 818.671 521.66 814.454 521.66H792.262C787.824 521.66 783.607 521.217 782.498 520.995L778.059 519.221C776.95 518.778 779.613 518.556 783.829 518.556H805.134Z" fill="#651FFF"/>
<path fill-rule="evenodd" clip-rule="evenodd" d="M775.618 520.995C776.728 521.438 774.065 521.66 769.626 521.66H750.097C745.88 521.66 741.442 521.217 740.554 520.995L736.782 519.221C735.894 518.778 738.557 518.556 742.774 518.556H761.859C766.075 518.556 770.292 518.778 771.402 519.221L775.618 520.995Z" fill="#651FFF"/>
<path fill-rule="evenodd" clip-rule="evenodd" d="M733.675 520.995C734.562 521.438 731.677 521.66 727.461 521.66H668.873C664.657 521.66 660.44 521.217 659.997 520.995L657.334 519.221C656.668 518.778 659.775 518.556 663.991 518.556H721.025C725.242 518.556 729.458 518.778 730.124 519.221L733.675 520.995Z" fill="#651FFF"/>
<path fill-rule="evenodd" clip-rule="evenodd" d="M652.895 520.995C653.561 521.438 650.454 521.66 646.016 521.66H628.262C624.045 521.66 620.051 521.217 619.607 520.995L617.609 519.221C617.166 518.778 620.273 518.556 624.489 518.556H641.799C646.016 518.556 649.788 518.778 650.454 519.221L652.895 520.995Z" fill="#651FFF"/>
<path fill-rule="evenodd" clip-rule="evenodd" d="M612.727 520.995C613.171 521.438 610.064 521.66 605.626 521.66H585.653C581.436 521.66 577.442 521.217 577.22 520.995L575.888 519.221C575.666 518.778 578.773 518.556 582.99 518.556H602.519C606.735 518.556 610.508 518.778 610.952 519.221L612.727 520.995Z" fill="#651FFF"/>
<path fill-rule="evenodd" clip-rule="evenodd" d="M570.34 520.995C570.562 521.438 567.233 521.66 563.017 521.66H547.482C543.266 521.66 539.493 521.217 539.271 520.995L538.605 519.221C538.383 518.778 541.712 518.556 545.929 518.556H561.019C565.236 518.556 568.787 518.778 569.23 519.221L570.34 520.995Z" fill="#651FFF"/>
<path fill-rule="evenodd" clip-rule="evenodd" d="M532.613 520.995C532.835 521.438 529.284 521.66 525.068 521.66H506.648C502.432 521.66 498.881 521.217 498.659 520.995V519.221C498.659 518.778 501.988 518.556 506.205 518.556H524.18C528.397 518.556 531.948 518.778 532.169 519.221L532.613 520.995Z" fill="#651FFF"/>
<path fill-rule="evenodd" clip-rule="evenodd" d="M491.558 520.995C491.558 521.438 488.007 521.66 483.79 521.66H466.037C461.598 521.66 458.269 521.217 458.491 520.995L458.935 519.221C459.157 518.778 462.486 518.556 466.702 518.556H484.012C488.229 518.556 491.558 518.778 491.558 519.221V520.995Z" fill="#651FFF"/>
<path fill-rule="evenodd" clip-rule="evenodd" d="M451.612 520.995C451.39 521.438 447.839 521.66 443.401 521.66H423.428C419.211 521.66 415.882 521.217 416.104 520.995L417.214 519.221C417.436 518.778 421.208 518.556 425.425 518.556H444.954C449.171 518.556 452.499 518.778 452.277 519.221L451.612 520.995Z" fill="#651FFF"/>
<path fill-rule="evenodd" clip-rule="evenodd" d="M409.225 520.995C409.003 521.438 405.23 521.66 400.792 521.66H382.594C378.377 521.66 375.049 521.217 375.492 520.995L377.268 519.221C377.712 518.778 381.484 518.556 385.701 518.556H403.455C407.671 518.556 410.778 518.778 410.556 519.221L409.225 520.995Z" fill="#651FFF"/>
<path fill-rule="evenodd" clip-rule="evenodd" d="M368.613 520.995C368.169 521.438 364.174 521.66 359.958 521.66H341.538C337.322 521.66 334.215 521.217 334.659 520.995L337.1 519.221C337.766 518.778 341.538 518.556 345.755 518.556H363.73C367.947 518.556 371.054 518.778 370.61 519.221L368.613 520.995Z" fill="#651FFF"/>
<path fill-rule="evenodd" clip-rule="evenodd" d="M327.779 520.995C327.113 521.438 323.119 521.66 318.902 521.66H301.148C296.932 521.66 293.825 521.217 294.713 520.995L297.82 519.221C298.485 518.778 302.48 518.556 306.696 518.556H324.006C328.223 518.556 331.108 518.778 330.664 519.221L327.779 520.995Z" fill="#651FFF"/>
<path fill-rule="evenodd" clip-rule="evenodd" d="M287.611 520.995C286.946 521.438 282.729 521.66 278.291 521.66H258.318C254.101 521.66 251.216 521.217 252.104 520.995L255.876 519.221C256.764 518.778 260.759 518.556 264.975 518.556H284.504C288.721 518.556 291.606 518.778 290.718 519.221L287.611 520.995Z" fill="#651FFF"/>
<path fill-rule="evenodd" clip-rule="evenodd" d="M245.446 520.995C244.558 521.438 240.342 521.66 235.903 521.66H171.768C167.551 521.66 164.888 521.217 166.22 520.995L171.324 519.221C172.434 518.778 176.872 518.556 181.089 518.556H243.227C247.443 518.556 250.106 518.778 249.219 519.221L245.446 520.995Z" fill="#651FFF"/>
<path fill-rule="evenodd" clip-rule="evenodd" d="M794.925 515.009C798.92 515.009 803.136 515.231 804.246 515.674L808.906 517.226C810.016 517.669 807.575 517.891 803.358 517.891H782.054C777.837 517.891 773.621 517.669 772.733 517.226L768.738 515.674C767.851 515.231 770.292 515.009 774.286 515.009H794.925Z" fill="#651FFF"/>
<path fill-rule="evenodd" clip-rule="evenodd" d="M766.075 517.226C766.963 517.669 764.522 517.891 760.305 517.891H685.739C681.523 517.891 677.528 517.669 676.863 517.226L674.199 515.674C673.534 515.231 676.419 515.009 680.413 515.009H752.982C756.976 515.009 761.193 515.231 762.081 515.674L766.075 517.226Z" fill="#651FFF"/>
<path fill-rule="evenodd" clip-rule="evenodd" d="M670.205 517.226C670.871 517.669 667.986 517.891 663.769 517.891H646.015C641.799 517.891 638.026 517.669 637.582 517.226L635.585 515.674C635.141 515.231 638.026 515.009 642.021 515.009H659.331C663.325 515.009 667.32 515.231 667.764 515.674L670.205 517.226Z" fill="#651FFF"/>
<path fill-rule="evenodd" clip-rule="evenodd" d="M630.925 517.226C631.369 517.669 628.484 517.891 624.267 517.891H607.179C602.963 517.891 599.19 517.669 598.968 517.226L597.415 515.674C596.971 515.231 600.078 515.009 604.072 515.009H620.716C624.711 515.009 628.484 515.231 628.928 515.674L630.925 517.226Z" fill="#651FFF"/>
<path fill-rule="evenodd" clip-rule="evenodd" d="M592.088 517.226C592.532 517.669 589.425 517.891 585.209 517.891H565.902C561.685 517.891 558.134 517.669 557.912 517.226L557.025 515.674C556.803 515.231 559.91 515.009 563.904 515.009H582.768C586.762 515.009 590.535 515.231 590.757 515.674L592.088 517.226Z" fill="#651FFF"/>
<path fill-rule="evenodd" clip-rule="evenodd" d="M551.255 517.226C551.477 517.669 548.148 517.891 544.153 517.891H529.284C525.068 517.891 521.517 517.669 521.517 517.226L521.073 515.674C521.073 515.231 524.18 515.009 528.175 515.009H542.822C546.816 515.009 550.367 515.231 550.589 515.674L551.255 517.226Z" fill="#651FFF"/>
<path fill-rule="evenodd" clip-rule="evenodd" d="M514.638 517.226C514.638 517.669 511.309 517.891 507.092 517.891H489.338C485.122 517.891 481.793 517.669 481.793 517.226L482.015 515.674C482.015 515.231 485.344 515.009 489.56 515.009H506.87C510.865 515.009 514.416 515.231 514.416 515.674L514.638 517.226Z" fill="#651FFF"/>
<path fill-rule="evenodd" clip-rule="evenodd" d="M475.135 517.226C475.135 517.669 471.585 517.891 467.368 517.891H450.28C446.064 517.891 442.735 517.669 442.957 517.226L443.623 515.674C443.844 515.231 447.173 515.009 451.39 515.009H468.034C472.029 515.009 475.357 515.231 475.357 515.674L475.135 517.226Z" fill="#651FFF"/>
<path fill-rule="evenodd" clip-rule="evenodd" d="M436.521 517.226C436.299 517.669 432.748 517.891 428.532 517.891H409.224C405.008 517.891 401.901 517.669 402.123 517.226L403.455 515.674C403.676 515.231 407.449 515.009 411.444 515.009H430.307C434.302 515.009 437.631 515.231 437.409 515.674L436.521 517.226Z" fill="#651FFF"/>
<path fill-rule="evenodd" clip-rule="evenodd" d="M395.465 517.226C395.022 517.669 391.471 517.891 387.254 517.891H369.722C365.506 517.891 362.621 517.669 363.065 517.226L364.84 515.674C365.284 515.231 369.057 515.009 373.051 515.009H390.139C394.134 515.009 397.241 515.231 397.019 515.674L395.465 517.226Z" fill="#651FFF"/>
<path fill-rule="evenodd" clip-rule="evenodd" d="M356.407 517.226C355.963 517.669 352.191 517.891 347.974 517.891H330.22C326.004 517.891 323.119 517.669 323.785 517.226L326.226 515.674C326.891 515.231 330.664 515.009 334.659 515.009H351.969C355.963 515.009 359.07 515.231 358.404 515.674L356.407 517.226Z" fill="#651FFF"/>
<path fill-rule="evenodd" clip-rule="evenodd" d="M316.905 517.226C316.239 517.669 312.245 517.891 308.25 517.891H291.162C286.945 517.891 284.282 517.669 284.948 517.226L288.055 515.674C288.721 515.231 292.715 515.009 296.71 515.009H313.354C317.349 515.009 320.234 515.231 319.568 515.674L316.905 517.226Z" fill="#651FFF"/>
<path fill-rule="evenodd" clip-rule="evenodd" d="M278.068 517.226C277.181 517.669 273.186 517.891 268.97 517.891H249.662C245.446 517.891 242.783 517.669 243.671 517.226L247.221 515.674C248.109 515.231 252.104 515.009 256.098 515.009H274.962C278.956 515.009 281.841 515.231 280.953 515.674L278.068 517.226Z" fill="#651FFF"/>
<path fill-rule="evenodd" clip-rule="evenodd" d="M237.235 517.226C236.347 517.669 232.131 517.891 227.914 517.891H182.864C178.647 517.891 176.206 517.669 177.316 517.226L181.976 515.674C183.086 515.231 187.302 515.009 191.297 515.009H235.238C239.232 515.009 241.895 515.231 241.007 515.674L237.235 517.226Z" fill="#651FFF"/>
<path fill-rule="evenodd" clip-rule="evenodd" d="M784.717 511.462C788.711 511.462 792.706 511.684 793.816 512.127L798.698 513.679C799.808 514.122 797.366 514.344 793.372 514.344H772.955C768.96 514.344 764.744 514.122 763.856 513.679L759.64 512.127C758.752 511.684 761.193 511.462 765.188 511.462H784.717Z" fill="#651FFF"/>
<path fill-rule="evenodd" clip-rule="evenodd" d="M757.198 513.679C758.086 514.122 755.645 514.344 751.428 514.344H705.047C701.052 514.344 697.057 514.122 696.392 513.679L693.063 512.127C692.397 511.684 695.06 511.462 699.055 511.462H744.105C748.1 511.462 751.872 511.684 752.76 512.127L757.198 513.679Z" fill="#651FFF"/>
<path fill-rule="evenodd" clip-rule="evenodd" d="M690.178 513.679C690.844 514.122 688.181 514.344 684.186 514.344H666.21C662.216 514.344 658.443 514.122 657.777 513.679L655.114 512.127C654.67 511.684 657.333 511.462 661.328 511.462H678.86C682.854 511.462 686.627 511.684 687.293 512.127L690.178 513.679Z" fill="#651FFF"/>
<path fill-rule="evenodd" clip-rule="evenodd" d="M651.342 513.679C651.785 514.122 649.122 514.344 644.906 514.344H627.596C623.601 514.344 619.829 514.122 619.385 513.679L617.388 512.127C616.944 511.684 619.829 511.462 623.823 511.462H640.689C644.684 511.462 648.235 511.684 648.9 512.127L651.342 513.679Z" fill="#651FFF"/>
<path fill-rule="evenodd" clip-rule="evenodd" d="M613.171 513.679C613.615 514.122 610.73 514.344 606.513 514.344H589.869C585.874 514.344 582.324 514.122 581.88 513.679L580.548 512.127C580.326 511.684 583.211 511.462 587.206 511.462H603.184C607.179 511.462 610.73 511.684 610.952 512.127L613.171 513.679Z" fill="#651FFF"/>
<path fill-rule="evenodd" clip-rule="evenodd" d="M575.666 513.679C575.888 514.122 572.781 514.344 568.787 514.344H550.145C546.151 514.344 542.6 514.122 542.6 513.679L541.712 512.127C541.49 511.684 544.597 511.462 548.592 511.462H566.789C570.784 511.462 574.113 511.684 574.335 512.127L575.666 513.679Z" fill="#651FFF"/>
<path fill-rule="evenodd" clip-rule="evenodd" d="M535.942 513.679C536.164 514.122 532.835 514.344 528.841 514.344H514.416C510.421 514.344 507.092 514.122 507.092 513.679L506.87 512.127C506.87 511.684 509.977 511.462 513.972 511.462H527.953C531.947 511.462 535.276 511.684 535.276 512.127L535.942 513.679Z" fill="#651FFF"/>
<path fill-rule="evenodd" clip-rule="evenodd" d="M500.656 513.679C500.656 514.122 497.328 514.344 493.333 514.344H476.023C472.029 514.344 468.7 514.122 468.922 513.679L469.365 512.127C469.365 511.684 472.694 511.462 476.689 511.462H493.555C497.55 511.462 500.656 511.684 500.656 512.127V513.679Z" fill="#651FFF"/>
<path fill-rule="evenodd" clip-rule="evenodd" d="M462.486 513.679C462.486 514.122 458.935 514.344 454.94 514.344H438.296C434.302 514.344 431.195 514.122 431.417 513.679L432.304 512.127C432.526 511.684 435.855 511.462 439.85 511.462H455.828C459.823 511.462 462.93 511.684 462.708 512.127L462.486 513.679Z" fill="#651FFF"/>
<path fill-rule="evenodd" clip-rule="evenodd" d="M424.981 513.679C424.759 514.122 421.208 514.344 417.214 514.344H398.572C394.578 514.344 391.471 514.122 391.915 513.679L393.468 512.127C393.912 511.684 397.241 511.462 401.235 511.462H419.433C423.428 511.462 426.313 511.684 426.091 512.127L424.981 513.679Z" fill="#651FFF"/>
<path fill-rule="evenodd" clip-rule="evenodd" d="M385.479 513.679C385.035 514.122 381.484 514.344 377.49 514.344H360.402C356.407 514.344 353.522 514.122 353.966 513.679L356.185 512.127C356.629 511.684 360.18 511.462 364.174 511.462H380.819C384.813 511.462 387.698 511.684 387.254 512.127L385.479 513.679Z" fill="#651FFF"/>
<path fill-rule="evenodd" clip-rule="evenodd" d="M347.53 513.679C347.086 514.122 343.314 514.344 339.319 514.344H322.009C318.015 514.344 315.13 514.122 315.795 513.679L318.68 512.127C319.346 511.684 322.897 511.462 326.891 511.462H343.757C347.752 511.462 350.415 511.684 349.971 512.127L347.53 513.679Z" fill="#651FFF"/>
<path fill-rule="evenodd" clip-rule="evenodd" d="M309.36 513.679C308.694 514.122 304.921 514.344 300.927 514.344H284.282C280.288 514.344 277.625 514.122 278.29 513.679L281.619 512.127C282.285 511.684 286.058 511.462 290.052 511.462H306.253C310.247 511.462 312.91 511.684 312.245 512.127L309.36 513.679Z" fill="#651FFF"/>
<path fill-rule="evenodd" clip-rule="evenodd" d="M271.855 513.679C271.189 514.122 267.194 514.344 263.2 514.344H244.558C240.564 514.344 237.901 514.122 238.788 513.679L242.783 512.127C243.671 511.684 247.443 511.462 251.438 511.462H269.635C273.63 511.462 276.071 511.684 275.405 512.127L271.855 513.679Z" fill="#651FFF"/>
<path fill-rule="evenodd" clip-rule="evenodd" d="M232.353 513.679C231.465 514.122 227.47 514.344 223.254 514.344H192.85C188.856 514.344 186.415 514.122 187.524 513.679L192.407 512.127C193.516 511.684 197.511 511.462 201.505 511.462H230.799C234.794 511.462 237.235 511.684 236.347 512.127L232.353 513.679Z" fill="#651FFF"/>
<path fill-rule="evenodd" clip-rule="evenodd" d="M231.243 510.132C230.355 510.353 226.361 510.797 222.588 510.797H203.059C199.064 510.797 196.845 510.575 197.733 510.132L201.727 508.801C202.615 508.58 206.61 508.136 210.382 508.136H229.468C233.24 508.136 235.682 508.358 234.794 508.801L231.243 510.132Z" fill="#651FFF"/>
<path fill-rule="evenodd" clip-rule="evenodd" d="M269.414 510.132C268.748 510.353 264.753 510.797 260.981 510.797H242.783C238.788 510.797 236.347 510.575 237.235 510.132L240.786 508.801C241.673 508.58 245.446 508.136 249.219 508.136H266.751C270.523 508.136 272.964 508.358 272.299 508.801L269.414 510.132Z" fill="#651FFF"/>
<path fill-rule="evenodd" clip-rule="evenodd" d="M305.809 510.132C305.143 510.353 301.371 510.797 297.598 510.797H281.619C277.625 510.797 275.184 510.575 275.849 510.132L278.734 508.801C279.4 508.58 283.173 508.136 286.946 508.136H302.48C306.253 508.136 308.916 508.358 308.25 508.801L305.809 510.132Z" fill="#651FFF"/>
<path fill-rule="evenodd" clip-rule="evenodd" d="M342.648 510.132C342.204 510.353 338.431 510.797 334.659 510.797H318.015C314.02 510.797 311.357 510.575 312.023 510.132L314.464 508.801C315.13 508.58 318.68 508.136 322.453 508.136H338.653C342.426 508.136 345.089 508.358 344.645 508.801L342.648 510.132Z" fill="#651FFF"/>
<path fill-rule="evenodd" clip-rule="evenodd" d="M379.265 510.132C378.821 510.353 375.27 510.797 371.498 510.797H355.076C351.081 510.797 348.418 510.575 348.862 510.132L350.859 508.801C351.303 508.58 354.854 508.136 358.626 508.136H374.605C378.377 508.136 381.262 508.358 380.819 508.801L379.265 510.132Z" fill="#651FFF"/>
<path fill-rule="evenodd" clip-rule="evenodd" d="M417.658 510.132C417.436 510.353 414.107 510.797 410.112 510.797H391.915C387.92 510.797 385.035 510.575 385.479 510.132L387.032 508.801C387.476 508.58 390.805 508.136 394.578 508.136H412.11C415.882 508.136 418.767 508.358 418.545 508.801L417.658 510.132Z" fill="#651FFF"/>
<path fill-rule="evenodd" clip-rule="evenodd" d="M453.831 510.132C453.609 510.353 450.502 510.797 446.507 510.797H430.529C426.534 510.797 423.649 510.575 423.871 510.132L424.759 508.801C424.981 508.58 428.31 508.136 432.082 508.136H447.617C451.39 508.136 454.497 508.358 454.275 508.801L453.831 510.132Z" fill="#651FFF"/>
<path fill-rule="evenodd" clip-rule="evenodd" d="M490.67 510.132C490.67 510.353 487.563 510.797 483.568 510.797H466.924C462.93 510.797 459.823 510.575 460.045 510.132L460.489 508.801C460.489 508.58 463.817 508.136 467.59 508.136H483.79C487.563 508.136 490.67 508.358 490.67 508.801V510.132Z" fill="#651FFF"/>
<path fill-rule="evenodd" clip-rule="evenodd" d="M524.846 510.132C524.846 510.353 521.961 510.797 517.966 510.797H503.985C499.991 510.797 496.884 510.575 496.884 510.132V508.801C496.884 508.58 499.991 508.136 503.763 508.136H517.301C521.073 508.136 524.402 508.358 524.402 508.801L524.846 510.132Z" fill="#651FFF"/>
<path fill-rule="evenodd" clip-rule="evenodd" d="M563.238 510.132C563.46 510.353 560.575 510.797 556.581 510.797H538.605C534.611 510.797 531.504 510.575 531.282 510.132L530.838 508.801C530.616 508.58 533.723 508.136 537.496 508.136H555.027C558.8 508.136 562.129 508.358 562.351 508.801L563.238 510.132Z" fill="#651FFF"/>
<path fill-rule="evenodd" clip-rule="evenodd" d="M599.412 510.132C599.856 510.353 596.971 510.797 592.976 510.797H576.998C573.003 510.797 569.674 510.575 569.452 510.132L568.343 508.801C568.121 508.58 571.006 508.136 574.778 508.136H590.313C594.086 508.136 597.414 508.358 597.858 508.801L599.412 510.132Z" fill="#651FFF"/>
<path fill-rule="evenodd" clip-rule="evenodd" d="M636.251 510.132C636.695 510.353 634.032 510.797 630.037 510.797H613.393C609.398 510.797 606.069 510.575 605.626 510.132L604.072 508.801C603.628 508.58 606.513 508.136 610.286 508.136H626.486C630.259 508.136 633.81 508.358 634.254 508.801L636.251 510.132Z" fill="#651FFF"/>
<path fill-rule="evenodd" clip-rule="evenodd" d="M673.978 510.132C674.644 510.353 671.98 510.797 667.986 510.797H650.676C646.681 510.797 643.131 510.575 642.687 510.132L640.689 508.801C640.246 508.58 642.909 508.136 646.681 508.136H663.547C667.32 508.136 670.871 508.358 671.537 508.801L673.978 510.132Z" fill="#651FFF"/>
<path fill-rule="evenodd" clip-rule="evenodd" d="M748.322 510.132C749.209 510.353 746.768 510.797 742.774 510.797H688.181C684.186 510.797 680.635 510.575 679.97 510.132L677.307 508.801C676.641 508.58 679.304 508.136 683.076 508.136H736.116C739.889 508.136 743.661 508.358 744.549 508.801L748.322 510.132Z" fill="#651FFF"/>
<path fill-rule="evenodd" clip-rule="evenodd" d="M775.84 508.136C779.613 508.136 783.607 508.358 784.495 508.801L788.489 510.132C789.377 510.353 787.158 510.797 783.163 510.797H763.412C759.418 510.797 755.645 510.575 754.757 510.132L751.207 508.801C750.319 508.58 752.76 508.136 756.533 508.136H775.84Z" fill="#651FFF"/>
<path fill-rule="evenodd" clip-rule="evenodd" d="M711.039 506.806C710.373 506.363 712.814 506.141 716.587 506.141H731.899C735.672 506.141 739.223 506.363 740.11 506.806L740.554 507.028C741.442 507.25 739.001 507.693 735.228 507.693H719.694C715.921 507.693 712.148 507.471 711.482 507.028L711.039 506.806Z" fill="#651FFF"/>
<path fill-rule="evenodd" clip-rule="evenodd" d="M673.978 506.806C673.312 506.363 675.975 506.141 679.748 506.141H697.058C700.83 506.141 704.381 506.363 705.047 506.806L705.491 507.028C706.156 507.25 703.715 507.693 699.943 507.693H682.411C678.638 507.693 675.087 507.471 674.421 507.028L673.978 506.806Z" fill="#651FFF"/>
<path fill-rule="evenodd" clip-rule="evenodd" d="M637.582 506.806C637.139 506.363 639.802 506.141 643.574 506.141H660.219C663.991 506.141 667.542 506.363 667.986 506.806L668.43 507.028C669.095 507.25 666.432 507.693 662.66 507.693H645.794C642.021 507.693 638.47 507.471 638.026 507.028L637.582 506.806Z" fill="#651FFF"/>
<path fill-rule="evenodd" clip-rule="evenodd" d="M601.853 506.806C601.409 506.363 604.294 506.141 608.067 506.141H624.045C627.818 506.141 631.147 506.363 631.591 506.806L631.812 507.028C632.256 507.25 629.593 507.693 625.821 507.693H609.62C605.848 507.693 602.519 507.471 602.075 507.028L601.853 506.806Z" fill="#651FFF"/>
<path fill-rule="evenodd" clip-rule="evenodd" d="M567.011 506.806C566.789 506.363 569.674 506.141 573.447 506.141H588.76C592.532 506.141 595.861 506.363 596.083 506.806L596.305 507.028C596.527 507.25 593.864 507.693 590.091 507.693H574.557C570.562 507.693 567.233 507.471 567.011 506.806Z" fill="#651FFF"/>
<path fill-rule="evenodd" clip-rule="evenodd" d="M529.95 506.806C529.728 506.363 532.835 506.141 536.608 506.141H553.918C557.69 506.141 560.797 506.363 561.019 506.806L561.241 507.028C561.463 507.25 558.578 507.693 554.805 507.693H537.052C533.279 507.693 530.172 507.471 529.95 506.806Z" fill="#651FFF"/>
<path fill-rule="evenodd" clip-rule="evenodd" d="M496.884 506.806C496.884 506.363 499.991 506.141 503.541 506.141H516.857C520.629 506.141 523.736 506.363 523.736 506.806V507.028C523.736 507.25 520.851 507.693 517.079 507.693H503.763C499.991 507.693 496.884 507.471 496.884 506.806Z" fill="#651FFF"/>
<path fill-rule="evenodd" clip-rule="evenodd" d="M461.154 506.806C461.154 506.363 464.483 506.141 468.034 506.141H484.012C487.785 506.141 490.892 506.363 490.892 506.806V507.028C490.892 507.25 487.785 507.693 484.012 507.693H467.812C463.817 507.693 460.932 507.471 461.154 506.806Z" fill="#651FFF"/>
<path fill-rule="evenodd" clip-rule="evenodd" d="M426.091 506.806C426.313 506.363 429.641 506.141 433.192 506.141H448.505C452.277 506.141 455.162 506.363 455.162 506.806V507.028C454.94 507.25 451.834 507.693 448.061 507.693H432.526C428.532 507.693 425.647 507.471 426.091 506.806Z" fill="#651FFF"/>
<path fill-rule="evenodd" clip-rule="evenodd" d="M389.03 506.806C389.473 506.363 392.802 506.141 396.353 506.141H413.663C417.436 506.141 420.321 506.363 420.099 506.806L419.877 507.028C419.655 507.25 416.326 507.693 412.553 507.693H395.022C391.249 507.693 388.364 507.471 388.808 507.028L389.03 506.806Z" fill="#651FFF"/>
<path fill-rule="evenodd" clip-rule="evenodd" d="M353.522 506.806C353.966 506.363 357.295 506.141 361.067 506.141H376.824C380.597 506.141 383.26 506.363 383.038 506.806L382.816 507.028C382.372 507.25 379.043 507.693 375.27 507.693H359.292C355.519 507.693 352.856 507.471 353.3 507.028L353.522 506.806Z" fill="#651FFF"/>
<path fill-rule="evenodd" clip-rule="evenodd" d="M317.793 506.806C318.458 506.363 321.787 506.141 325.56 506.141H341.538C345.311 506.141 347.974 506.363 347.53 506.806L347.308 507.028C346.864 507.25 343.314 507.693 339.541 507.693H323.341C319.568 507.693 316.905 507.471 317.571 507.028L317.793 506.806Z" fill="#651FFF"/>
<path fill-rule="evenodd" clip-rule="evenodd" d="M282.729 506.806C283.395 506.363 286.945 506.141 290.718 506.141H306.031C309.803 506.141 312.245 506.363 311.801 506.806L311.357 507.028C310.691 507.25 307.14 507.693 303.368 507.693H287.833C284.06 507.693 281.619 507.471 282.285 507.028L282.729 506.806Z" fill="#651FFF"/>
<path fill-rule="evenodd" clip-rule="evenodd" d="M245.89 506.806C246.778 506.363 250.328 506.141 254.101 506.141H271.411C275.184 506.141 277.625 506.363 276.959 506.806L276.515 507.028C275.849 507.25 272.077 507.693 268.304 507.693H250.772C246.999 507.693 244.558 507.471 245.446 507.028L245.89 506.806Z" fill="#651FFF"/>
<path fill-rule="evenodd" clip-rule="evenodd" d="M154.236 524.986C152.905 525.429 155.568 525.872 160.006 525.872H190.187C194.626 525.872 199.286 525.429 200.396 524.986L205.056 523.212C206.166 522.769 203.503 522.325 199.064 522.325H169.771C165.332 522.325 160.894 522.769 159.562 523.212L154.236 524.986Z" fill="#651FFF"/>
<path fill-rule="evenodd" clip-rule="evenodd" d="M207.275 506.806C208.163 506.363 211.936 506.141 215.708 506.141H234.35C238.122 506.141 240.564 506.363 239.676 506.806L239.01 507.028C238.122 507.25 234.35 507.693 230.577 507.693H211.714C207.941 507.693 205.5 507.471 206.61 507.028L207.275 506.806Z" fill="#651FFF"/>
<path fill-rule="evenodd" clip-rule="evenodd" d="M778.725 506.806C777.837 506.363 774.064 506.141 770.292 506.141H751.428C747.656 506.141 745.215 506.363 746.102 506.806L746.546 507.028C747.434 507.25 751.206 507.693 754.979 507.693H774.286C778.059 507.693 780.5 507.471 779.391 507.028L778.725 506.806Z" fill="#651FFF"/>
<path fill-rule="evenodd" clip-rule="evenodd" d="M831.986 524.986C833.318 525.429 830.655 525.872 826.216 525.872H803.358C798.92 525.872 794.259 525.429 793.15 524.986L788.268 523.212C787.158 522.769 789.821 522.325 794.038 522.325H816.23C820.668 522.325 825.107 522.769 826.438 523.212L831.986 524.986Z" fill="#651FFF"/>
<path fill-rule="evenodd" clip-rule="evenodd" d="M660.662 543.387C661.328 543.83 658.443 544.273 654.67 544.273H331.33C327.335 544.273 324.672 543.83 325.338 543.387L344.867 527.868C345.311 527.424 348.418 527.203 351.747 527.203H634.254C637.582 527.203 640.911 527.424 641.133 527.868L660.662 543.387Z" fill="#651FFF"/>
<path d="M545.263 287.988C542.6 287.988 540.158 288.21 537.717 288.653C529.062 270.696 510.643 258.28 489.56 258.28C461.376 258.28 438.518 279.785 436.077 307.276C434.524 307.054 432.748 306.833 431.195 306.833C414.994 306.833 401.901 319.913 401.901 336.097C401.901 352.281 414.994 365.362 431.195 365.362C441.181 365.362 535.72 365.362 545.263 365.362C566.789 365.362 584.099 348.069 584.099 326.564C584.099 305.503 566.789 287.988 545.263 287.988Z" fill="white" stroke="#651FFF" stroke-linecap="round" stroke-linejoin="round"/>
<path d="M510.643 320.356V338.536H475.357V320.356H467.812V345.63H518.41V320.356H510.643Z" fill="#ECECFE" stroke="#651FFF" stroke-linecap="round" stroke-linejoin="round"/>
<path d="M507.98 311.267L493.111 296.191L478.02 311.267L482.015 315.257L490.004 307.276V325.677H495.996V307.276L503.985 315.257L507.98 311.267Z" fill="#ECECFE" stroke="#651FFF" stroke-linecap="round" stroke-linejoin="round"/>
<path d="M645.128 389.527H340.65V405.046H645.128V389.527Z" fill="white" stroke="#651FFF" stroke-linecap="round" stroke-linejoin="round"/>
<path d="M490.67 389.527H340.65V405.046H490.67V389.527Z" fill="#651FFF" stroke="#651FFF" stroke-linecap="round" stroke-linejoin="round"/>
<path d="M703.715 438.079V443.622H698.167" stroke="#651FFF" stroke-linecap="round" stroke-linejoin="round"/>
<path d="M687.071 443.622H293.381" stroke="#651FFF" stroke-linecap="round" stroke-linejoin="round" stroke-dasharray="5 5"/>
<path d="M287.833 443.622H282.285V438.079" stroke="#651FFF" stroke-linecap="round" stroke-linejoin="round"/>
<path d="M282.285 426.994V209.95" stroke="#651FFF" stroke-linecap="round" stroke-linejoin="round" stroke-dasharray="5.02 5.02"/>
<path d="M282.285 204.407V198.865H287.833" stroke="#651FFF" stroke-linecap="round" stroke-linejoin="round"/>
<path d="M298.929 198.865H692.619" stroke="#651FFF" stroke-linecap="round" stroke-linejoin="round" stroke-dasharray="5 5"/>
<path d="M698.167 198.865H703.715V204.407" stroke="#651FFF" stroke-linecap="round" stroke-linejoin="round"/>
<path d="M703.715 215.492V432.537" stroke="#651FFF" stroke-linecap="round" stroke-linejoin="round" stroke-dasharray="5.02 5.02"/>
<path d="M438.074 227.021H436.299V226.134C436.077 226.356 435.855 226.577 435.633 226.799C435.189 227.021 434.967 227.021 434.524 227.021C433.636 227.021 432.97 226.799 432.304 226.134C431.639 225.469 431.417 224.804 431.417 223.695C431.417 222.808 431.639 221.922 432.304 221.257C432.97 220.591 433.636 220.37 434.524 220.37C434.967 220.37 435.411 220.37 435.633 220.591C436.077 220.813 436.299 221.035 436.299 221.257V217.266H438.074V227.021ZM436.299 223.917C436.299 223.474 436.077 223.03 435.855 222.808C435.633 222.587 435.189 222.365 434.745 222.365C434.302 222.365 434.08 222.587 433.636 222.808C433.192 223.03 433.192 223.474 433.192 223.917C433.192 224.36 433.414 224.804 433.636 225.025C433.858 225.247 434.302 225.469 434.745 225.469C435.189 225.469 435.411 225.247 435.855 225.025C436.077 224.582 436.299 224.36 436.299 223.917Z" fill="#651FFF"/>
<path d="M441.847 224.804V227.021H439.85V220.592H441.847V222.143C442.069 221.7 442.291 221.257 442.513 220.813C442.957 220.592 443.179 220.37 443.622 220.37C444.066 220.37 444.51 220.37 444.732 220.592L444.288 222.365C444.066 222.143 443.622 222.143 443.4 222.143C442.291 222.365 441.847 223.03 441.847 224.804Z" fill="#651FFF"/>
<path d="M450.946 226.134C450.28 226.799 449.614 227.021 448.505 227.021C447.395 227.021 446.729 226.799 446.063 226.134C445.398 225.469 445.176 224.804 445.176 223.695C445.176 222.587 445.398 221.922 446.063 221.257C446.729 220.592 447.395 220.37 448.505 220.37C449.614 220.37 450.28 220.592 450.946 221.257C451.612 221.922 451.833 222.587 451.833 223.695C451.833 224.804 451.612 225.691 450.946 226.134ZM448.505 225.247C448.948 225.247 449.17 225.026 449.614 224.804C449.836 224.582 450.058 224.139 450.058 223.695C450.058 223.252 449.836 223.03 449.614 222.587C449.392 222.365 448.948 222.143 448.505 222.143C448.061 222.143 447.839 222.365 447.395 222.587C447.173 222.809 446.951 223.252 446.951 223.695C446.951 224.139 447.173 224.582 447.395 224.804C447.839 225.026 448.061 225.247 448.505 225.247Z" fill="#651FFF"/>
<path d="M453.165 220.591H454.94V221.478C455.162 221.257 455.384 221.035 455.606 220.813C456.05 220.591 456.272 220.591 456.716 220.591C457.603 220.591 458.269 220.813 458.935 221.478C459.601 222.143 459.823 222.808 459.823 223.917C459.823 224.804 459.601 225.691 458.935 226.356C458.269 227.021 457.603 227.242 456.716 227.242C456.272 227.242 455.828 227.242 455.606 227.021C455.162 226.799 454.94 226.577 454.94 226.356V230.346H453.165V220.591ZM455.162 223.917C455.162 224.36 455.384 224.804 455.606 225.025C455.828 225.247 456.272 225.469 456.716 225.469C457.16 225.469 457.382 225.247 457.825 225.025C458.047 224.804 458.269 224.36 458.269 223.917C458.269 223.474 458.047 223.03 457.825 222.808C457.603 222.587 457.16 222.365 456.716 222.365C456.272 222.365 456.05 222.587 455.606 222.808C455.162 223.03 455.162 223.474 455.162 223.917Z" fill="#651FFF"/>
<path d="M466.702 223.695V227.021H464.705V217.266H466.702V221.7C466.924 221.257 467.146 221.035 467.368 220.813C467.812 220.591 468.034 220.591 468.478 220.591C469.365 220.591 470.031 220.813 470.475 221.478C470.919 221.922 471.141 222.808 471.141 223.695V227.242H469.143V223.917C469.143 223.474 468.921 223.252 468.7 223.03C468.478 222.808 468.256 222.587 467.812 222.587C467.368 222.587 467.146 222.587 466.924 222.808C466.702 223.03 466.702 223.252 466.702 223.695Z" fill="#651FFF"/>
<path d="M477.133 225.025L478.464 225.912C477.798 226.799 476.911 227.242 475.579 227.242C474.692 227.242 473.804 227.021 473.138 226.356C472.472 225.691 472.25 225.025 472.25 223.917C472.25 222.808 472.472 222.143 473.138 221.478C473.804 220.813 474.47 220.591 475.579 220.591C476.467 220.591 477.355 220.813 477.798 221.478C478.464 222.143 478.686 222.808 478.686 223.917C478.686 224.139 478.686 224.36 478.686 224.582H474.026C474.026 225.025 474.248 225.247 474.47 225.469C474.692 225.691 475.135 225.691 475.579 225.691C476.467 225.469 476.911 225.247 477.133 225.025ZM474.248 223.252H476.911C476.911 222.808 476.689 222.587 476.467 222.365C476.245 222.143 475.801 222.143 475.579 222.143C475.357 222.143 474.913 222.143 474.691 222.365C474.47 222.587 474.248 222.808 474.248 223.252Z" fill="#651FFF"/>
<path d="M482.015 224.804V227.021H480.018V220.592H482.015V222.143C482.237 221.7 482.459 221.257 482.681 220.813C483.124 220.592 483.346 220.37 483.79 220.37C484.234 220.37 484.678 220.37 484.9 220.592L484.456 222.365C484.234 222.143 483.79 222.143 483.568 222.143C482.681 222.365 482.015 223.03 482.015 224.804Z" fill="#651FFF"/>
<path d="M490.226 225.025L491.558 225.912C490.892 226.799 490.004 227.242 488.673 227.242C487.785 227.242 486.897 227.021 486.231 226.356C485.566 225.691 485.344 225.025 485.344 223.917C485.344 222.808 485.566 222.143 486.231 221.478C486.897 220.813 487.563 220.591 488.673 220.591C489.56 220.591 490.448 220.813 490.892 221.478C491.558 222.143 491.78 222.808 491.78 223.917C491.78 224.139 491.78 224.36 491.78 224.582H487.119C487.119 225.025 487.341 225.247 487.563 225.469C487.785 225.691 488.229 225.691 488.673 225.691C489.56 225.469 490.004 225.247 490.226 225.025ZM487.341 223.252H490.004C490.004 222.808 489.782 222.587 489.56 222.365C489.338 222.143 488.895 222.143 488.673 222.143C488.451 222.143 488.007 222.143 487.785 222.365C487.563 222.587 487.563 222.808 487.341 223.252Z" fill="#651FFF"/>
<path d="M498.881 220.591H500.212V222.143H498.881V227.021H497.106V222.143H495.996V220.591H497.106V218.153H498.881V220.591Z" fill="#651FFF"/>
<path d="M506.648 226.134C505.983 226.799 505.317 227.021 504.207 227.021C503.319 227.021 502.432 226.799 501.766 226.134C501.1 225.469 500.878 224.804 500.878 223.695C500.878 222.587 501.1 221.922 501.766 221.257C502.432 220.592 503.098 220.37 504.207 220.37C505.095 220.37 505.983 220.592 506.648 221.257C507.314 221.922 507.536 222.587 507.536 223.695C507.536 224.804 507.314 225.691 506.648 226.134ZM504.207 225.247C504.651 225.247 504.873 225.026 505.317 224.804C505.539 224.582 505.761 224.139 505.761 223.695C505.761 223.252 505.539 223.03 505.317 222.587C505.095 222.365 504.651 222.143 504.207 222.143C503.763 222.143 503.541 222.365 503.098 222.587C502.876 222.809 502.654 223.252 502.654 223.695C502.654 224.139 502.876 224.582 503.098 224.804C503.541 225.026 503.985 225.247 504.207 225.247Z" fill="#651FFF"/>
<path d="M516.413 223.917V220.591H518.41V227.021H516.413V226.134C516.191 226.356 515.969 226.577 515.747 226.799C515.525 227.021 515.081 227.021 514.859 227.021C514.194 227.021 513.528 226.799 513.084 226.356C512.64 225.912 512.418 225.247 512.418 224.36V220.591H514.416V223.917C514.416 224.36 514.637 224.804 514.859 224.804C515.081 224.804 515.303 225.025 515.747 225.025C515.969 225.025 516.413 225.025 516.635 224.804C516.413 224.804 516.413 224.36 516.413 223.917Z" fill="#651FFF"/>
<path d="M519.964 220.591H521.739V221.478C521.961 221.257 522.183 221.035 522.405 220.813C522.849 220.591 523.071 220.591 523.514 220.591C524.402 220.591 525.068 220.813 525.734 221.478C526.399 222.143 526.621 222.808 526.621 223.917C526.621 224.804 526.399 225.691 525.734 226.356C525.068 227.021 524.402 227.242 523.514 227.242C523.071 227.242 522.627 227.242 522.405 227.021C521.961 226.799 521.739 226.577 521.739 226.356V230.346H519.964V220.591ZM521.961 223.917C521.961 224.36 522.183 224.804 522.405 225.025C522.627 225.247 523.071 225.469 523.514 225.469C523.958 225.469 524.18 225.247 524.624 225.025C525.068 224.804 525.068 224.36 525.068 223.917C525.068 223.474 524.846 223.03 524.624 222.808C524.402 222.587 523.958 222.365 523.514 222.365C523.071 222.365 522.849 222.587 522.405 222.808C522.183 223.03 521.961 223.474 521.961 223.917Z" fill="#651FFF"/>
<path d="M528.175 217.266H530.172V227.021H528.175V217.266Z" fill="#651FFF"/>
<path d="M537.274 226.134C536.608 226.799 535.942 227.021 534.832 227.021C533.945 227.021 533.057 226.799 532.391 226.134C531.725 225.469 531.504 224.804 531.504 223.695C531.504 222.587 531.725 221.922 532.391 221.257C533.057 220.592 533.723 220.37 534.832 220.37C535.72 220.37 536.608 220.592 537.274 221.257C537.939 221.922 538.161 222.587 538.161 223.695C538.161 224.804 537.939 225.691 537.274 226.134ZM534.832 225.247C535.276 225.247 535.498 225.026 535.942 224.804C536.164 224.582 536.386 224.139 536.386 223.695C536.386 223.252 536.164 223.03 535.942 222.587C535.72 222.143 535.276 222.143 534.832 222.143C534.389 222.143 534.167 222.365 533.723 222.587C533.279 222.809 533.279 223.252 533.279 223.695C533.279 224.139 533.501 224.582 533.723 224.804C534.167 225.026 534.389 225.247 534.832 225.247Z" fill="#651FFF"/>
<path d="M544.153 227.021V226.356C543.931 226.577 543.709 226.799 543.265 227.021C542.822 227.242 542.6 227.242 542.156 227.242C541.268 227.242 540.602 227.021 539.937 226.356C539.271 225.691 539.049 225.025 539.049 223.917C539.049 223.03 539.271 222.143 539.937 221.478C540.602 220.813 541.268 220.591 542.156 220.591C542.378 220.591 542.822 220.591 543.043 220.813C543.487 221.035 543.709 221.257 543.931 221.478V220.813H545.706V227.242H544.153V227.021ZM541.712 222.808C541.49 223.03 541.268 223.474 541.268 223.917C541.268 224.36 541.49 224.804 541.712 225.025C541.934 225.247 542.378 225.469 542.822 225.469C543.265 225.469 543.487 225.247 543.931 225.025C544.153 224.804 544.375 224.36 544.375 223.917C544.375 223.474 544.153 223.03 543.931 222.808C543.709 222.587 543.265 222.365 542.822 222.365C542.378 222.365 541.934 222.365 541.712 222.808Z" fill="#651FFF"/>
<path d="M554.362 227.021H552.586V226.134C552.364 226.356 552.142 226.577 551.92 226.799C551.477 227.021 551.255 227.021 550.811 227.021C549.923 227.021 549.257 226.799 548.592 226.134C547.926 225.469 547.704 224.804 547.704 223.695C547.704 222.808 547.926 221.922 548.592 221.257C549.257 220.591 549.923 220.37 550.811 220.37C551.255 220.37 551.698 220.37 551.92 220.591C552.364 220.813 552.586 221.035 552.586 221.257V217.266H554.362V227.021ZM552.364 223.917C552.364 223.474 552.142 223.03 551.92 222.808C551.698 222.587 551.255 222.365 550.811 222.365C550.367 222.365 550.145 222.587 549.701 222.808C549.479 223.03 549.257 223.474 549.257 223.917C549.257 224.36 549.479 224.804 549.701 225.025C549.923 225.247 550.367 225.469 550.811 225.469C551.255 225.469 551.477 225.247 551.92 225.025C552.364 224.582 552.364 224.36 552.364 223.917Z" fill="#651FFF"/>
<path d="M854.844 413.692C854.844 417.461 851.959 420.343 848.186 420.343H769.182C765.409 420.343 762.524 417.461 762.524 413.692V292.866C762.524 289.097 765.409 286.215 769.182 286.215H848.186C851.959 286.215 854.844 289.097 854.844 292.866V413.692Z" fill="#D4DEE6" stroke="#651FFF" stroke-linecap="round" stroke-linejoin="round"/>
<path d="M843.082 423.669C843.082 427.438 840.197 430.32 836.425 430.32H757.42C753.648 430.32 750.763 427.438 750.763 423.669V302.842C750.763 299.073 753.648 296.191 757.42 296.191H812.901L842.86 326.121V423.669H843.082Z" fill="white" stroke="#651FFF" stroke-linecap="round" stroke-linejoin="round"/>
<path d="M813.123 316.588C813.123 321.908 817.339 326.121 822.665 326.121H843.082L813.123 296.191V316.588Z" fill="#ECECFE" stroke="#651FFF" stroke-linecap="round" stroke-linejoin="round"/>
<path d="M760.527 340.088H812.235" stroke="#651FFF" stroke-linecap="round" stroke-linejoin="round"/>
<path d="M760.527 348.956H833.318" stroke="#651FFF" stroke-linecap="round" stroke-linejoin="round"/>
<path d="M760.527 358.045H833.318" stroke="#651FFF" stroke-linecap="round" stroke-linejoin="round"/>
<path d="M760.527 367.135H833.318" stroke="#651FFF" stroke-linecap="round" stroke-linejoin="round"/>
<path d="M760.527 376.225H833.318" stroke="#651FFF" stroke-linecap="round" stroke-linejoin="round"/>
<path d="M760.527 385.315H833.318" stroke="#651FFF" stroke-linecap="round" stroke-linejoin="round"/>
<path d="M760.527 394.404H833.318" stroke="#651FFF" stroke-linecap="round" stroke-linejoin="round"/>
<path d="M760.527 403.272H833.318" stroke="#651FFF" stroke-linecap="round" stroke-linejoin="round"/>
<path d="M760.527 412.362H833.318" stroke="#651FFF" stroke-linecap="round" stroke-linejoin="round"/>
<path d="M230.355 327.007C231.465 330.998 229.024 335.21 225.029 336.319L147.578 357.38C143.584 358.489 139.367 356.05 138.258 352.06L112.293 256.729C111.183 252.738 113.624 248.526 117.619 247.417L195.07 226.356C199.064 225.247 203.281 227.686 204.39 231.676L230.355 327.007Z" fill="#E8EFF5" stroke="#651FFF" stroke-linecap="round" stroke-linejoin="round"/>
<path d="M197.12 233.455L119.58 254.441L140.588 331.904L218.128 310.917L197.12 233.455Z" fill="#E0F7FA" stroke="#651FFF" stroke-linecap="round" stroke-linejoin="round"/>
<path d="M201.062 260.497C203.947 270.917 197.733 281.559 187.302 284.219C176.872 287.101 166.22 280.894 163.557 270.474C160.672 260.054 166.886 249.412 177.316 246.752C187.524 244.092 198.177 250.078 201.062 260.497Z" fill="#F8D12E" stroke="#651FFF" stroke-linecap="round" stroke-linejoin="round"/>
<path d="M176.428 322.352L218.15 311.045L211.714 287.323L191.075 266.705L176.428 322.352Z" fill="#00C853" stroke="#651FFF" stroke-linecap="round" stroke-linejoin="round"/>
<path d="M148.688 265.153L135.816 313.927L140.699 331.885L199.952 315.922L148.688 265.153Z" fill="#81D678" stroke="#651FFF" stroke-linecap="round" stroke-linejoin="round"/>
<path d="M241.008 327.229C241.008 331.441 237.679 334.767 233.462 334.767H152.904C148.688 334.767 145.359 331.441 145.359 327.229V228.351C145.359 224.139 148.688 220.813 152.904 220.813H233.24C237.457 220.813 240.786 224.139 240.786 228.351V327.229H241.008Z" fill="white" stroke="#651FFF" stroke-linecap="round" stroke-linejoin="round"/>
<path d="M233.24 228.573H152.905V308.828H233.24V228.573Z" fill="#E0F7FA" stroke="#651FFF" stroke-linecap="round" stroke-linejoin="round"/>
<path d="M229.912 255.62C229.912 266.262 221.257 275.13 210.382 275.13C199.73 275.13 190.853 266.483 190.853 255.62C190.853 244.978 199.508 236.11 210.382 236.11C221.257 236.11 229.912 244.757 229.912 255.62Z" fill="#F8D12E" stroke="#651FFF" stroke-linecap="round" stroke-linejoin="round"/>
<path d="M189.966 308.606H233.24V284.219L218.815 258.946L189.966 308.606Z" fill="#00C853" stroke="#651FFF" stroke-linecap="round" stroke-linejoin="round"/>
<path d="M178.204 246.309L152.905 289.984V308.606H214.377L178.204 246.309Z" fill="#81D678" stroke="#651FFF" stroke-linecap="round" stroke-linejoin="round"/>
<path d="M349.749 285.993L347.752 266.705C347.308 263.38 344.423 260.719 340.872 261.163C337.543 261.606 334.88 264.488 335.324 268.035L335.768 272.248C300.704 248.304 257.208 257.615 255.21 258.059C251.882 258.724 249.662 262.049 250.55 265.375C251.216 268.7 254.545 270.917 257.873 270.031C258.317 270.031 297.376 261.384 328.001 282.002L323.34 282.446C320.012 282.889 317.349 285.771 317.792 289.318C318.014 292.422 320.899 294.861 324.006 294.861C324.228 294.861 324.45 294.861 324.672 294.861L343.979 292.866C347.752 292.422 350.193 289.54 349.749 285.993Z" fill="white" stroke="#651FFF" stroke-linecap="round" stroke-linejoin="round"/>
<path d="M686.849 338.979L688.846 319.691C689.29 316.366 692.175 313.705 695.726 314.149C699.055 314.592 701.718 317.474 701.274 321.022L700.83 325.234C735.894 301.29 779.39 310.602 781.388 311.045C784.717 311.71 786.936 315.036 786.048 318.361C785.382 321.687 782.054 323.904 778.725 323.017C778.281 323.017 739.223 314.371 708.597 334.989L713.258 335.432C716.586 335.875 719.25 338.758 718.806 342.305C718.584 345.409 715.699 347.847 712.592 347.847C712.37 347.847 712.148 347.847 711.926 347.847L692.397 345.852C688.846 345.409 686.405 342.305 686.849 338.979Z" fill="#651FFF" stroke="#651FFF" stroke-linecap="round" stroke-linejoin="round"/>
<path d="M229.246 410.588C230.355 405.933 235.237 402.164 240.12 402.164H319.79C324.672 402.164 327.779 405.933 326.669 410.588L315.351 460.471C314.242 465.127 309.359 468.895 304.477 468.895H224.807C219.925 468.895 216.818 465.127 217.928 460.471L229.246 410.588Z" fill="#FFAB73" stroke="#651FFF" stroke-linecap="round" stroke-linejoin="round"/>
<path d="M274.961 414.357C270.079 414.357 266.085 410.588 266.085 405.711C266.085 400.834 262.09 397.065 257.208 397.065H225.029C220.147 397.065 216.152 401.055 216.152 405.933V459.806C216.152 464.683 220.147 468.674 225.029 468.674H304.699C309.581 468.674 313.576 464.683 313.576 459.806V423.004C313.576 418.126 309.581 414.136 304.699 414.136H274.961V414.357Z" fill="#F8D12E" stroke="#651FFF" stroke-linecap="round" stroke-linejoin="round"/>
<path d="M761.415 201.747C761.415 209.95 754.757 216.601 746.546 216.601H687.515C679.304 216.601 672.646 209.95 672.646 201.747V142.775C672.646 134.572 679.304 127.921 687.515 127.921H746.546C754.757 127.921 761.415 134.572 761.415 142.775V201.747Z" fill="#00E5FF" stroke="#651FFF" stroke-linecap="round" stroke-linejoin="round"/>
<path d="M700.386 156.52C700.386 150.313 704.603 147.874 709.929 150.978L737.225 166.718C742.551 169.822 742.551 174.7 737.225 177.803L709.929 193.544C704.603 196.648 700.386 193.987 700.386 188.002V156.52Z" fill="white" stroke="#651FFF" stroke-linecap="round" stroke-linejoin="round"/>
<path d="M613.837 116.171C613.171 116.171 612.727 115.727 612.727 115.062V110.628C612.727 109.963 613.171 109.52 613.837 109.52H616.056V105.751H609.176V54.7599H616.056V50.991H613.837C613.171 50.991 612.727 50.5476 612.727 49.8825V45.4485C612.727 44.7834 613.171 44.34 613.837 44.34H616.056V41.4579H484.9V44.34H487.119C487.785 44.34 488.229 44.7834 488.229 45.4485V49.8825C488.229 50.5476 487.785 50.991 487.119 50.991H484.9V54.7599H491.78V105.751H484.9V109.52H487.119C487.785 109.52 488.229 109.963 488.229 110.628V115.062C488.229 115.727 487.785 116.171 487.119 116.171H484.9V119.053H616.056V116.171H613.837ZM504.651 115.284C504.651 115.949 504.207 116.392 503.541 116.392H499.103C498.437 116.392 497.993 115.949 497.993 115.284V110.85C497.993 110.185 498.437 109.741 499.103 109.741H503.541C504.207 109.741 504.651 110.185 504.651 110.85V115.284ZM504.651 50.1042C504.651 50.7693 504.207 51.2127 503.541 51.2127H499.103C498.437 51.2127 497.993 50.7693 497.993 50.1042V45.6702C497.993 45.0051 498.437 44.5617 499.103 44.5617H503.541C504.207 44.5617 504.651 45.0051 504.651 45.6702V50.1042ZM520.851 115.284C520.851 115.949 520.407 116.392 519.742 116.392H515.303C514.637 116.392 514.194 115.949 514.194 115.284V110.85C514.194 110.185 514.637 109.741 515.303 109.741H519.742C520.407 109.741 520.851 110.185 520.851 110.85V115.284ZM520.851 50.1042C520.851 50.7693 520.407 51.2127 519.742 51.2127H515.303C514.637 51.2127 514.194 50.7693 514.194 50.1042V45.6702C514.194 45.0051 514.637 44.5617 515.303 44.5617H519.742C520.407 44.5617 520.851 45.0051 520.851 45.6702V50.1042ZM537.274 115.284C537.274 115.949 536.83 116.392 536.164 116.392H531.725C531.06 116.392 530.616 115.949 530.616 115.284V110.85C530.616 110.185 531.06 109.741 531.725 109.741H536.164C536.83 109.741 537.274 110.185 537.274 110.85V115.284ZM537.274 50.1042C537.274 50.7693 536.83 51.2127 536.164 51.2127H531.725C531.06 51.2127 530.616 50.7693 530.616 50.1042V45.6702C530.616 45.0051 531.06 44.5617 531.725 44.5617H536.164C536.83 44.5617 537.274 45.0051 537.274 45.6702V50.1042ZM553.696 115.284C553.696 115.949 553.252 116.392 552.586 116.392H548.148C547.482 116.392 547.038 115.949 547.038 115.284V110.85C547.038 110.185 547.482 109.741 548.148 109.741H552.586C553.252 109.741 553.696 110.185 553.696 110.85V115.284ZM553.696 50.1042C553.696 50.7693 553.252 51.2127 552.586 51.2127H548.148C547.482 51.2127 547.038 50.7693 547.038 50.1042V45.6702C547.038 45.0051 547.482 44.5617 548.148 44.5617H552.586C553.252 44.5617 553.696 45.0051 553.696 45.6702V50.1042ZM570.118 115.284C570.118 115.949 569.674 116.392 569.008 116.392H564.57C563.904 116.392 563.46 115.949 563.46 115.284V110.85C563.46 110.185 563.904 109.741 564.57 109.741H569.008C569.674 109.741 570.118 110.185 570.118 110.85V115.284ZM570.118 50.1042C570.118 50.7693 569.674 51.2127 569.008 51.2127H564.57C563.904 51.2127 563.46 50.7693 563.46 50.1042V45.6702C563.46 45.0051 563.904 44.5617 564.57 44.5617H569.008C569.674 44.5617 570.118 45.0051 570.118 45.6702V50.1042ZM586.54 115.284C586.54 115.949 586.096 116.392 585.431 116.392H580.992C580.326 116.392 579.883 115.949 579.883 115.284V110.85C579.883 110.185 580.326 109.741 580.992 109.741H585.431C586.096 109.741 586.54 110.185 586.54 110.85V115.284ZM586.54 50.1042C586.54 50.7693 586.096 51.2127 585.431 51.2127H580.992C580.326 51.2127 579.883 50.7693 579.883 50.1042V45.6702C579.883 45.0051 580.326 44.5617 580.992 44.5617H585.431C586.096 44.5617 586.54 45.0051 586.54 45.6702V50.1042ZM602.963 115.284C602.963 115.949 602.519 116.392 601.853 116.392H597.414C596.749 116.392 596.305 115.949 596.305 115.284V110.85C596.305 110.185 596.749 109.741 597.414 109.741H601.853C602.519 109.741 602.963 110.185 602.963 110.85V115.284ZM602.963 50.1042C602.963 50.7693 602.519 51.2127 601.853 51.2127H597.414C596.749 51.2127 596.305 50.7693 596.305 50.1042V45.6702C596.305 45.0051 596.749 44.5617 597.414 44.5617H601.853C602.519 44.5617 602.963 45.0051 602.963 45.6702V50.1042Z" fill="#651FFF" stroke="#651FFF" stroke-linecap="round" stroke-linejoin="round"/>
<path d="M597.636 54.7599H503.098V105.751H597.636V54.7599Z" fill="white" stroke="#651FFF" stroke-linecap="round" stroke-linejoin="round"/>
<path d="M537.274 68.9487C537.274 64.5147 540.38 62.7411 544.153 64.9581L563.904 76.2648C567.677 78.4818 567.677 82.029 563.904 84.246L544.153 95.5527C540.38 97.7697 537.274 95.9961 537.274 91.5621V68.9487Z" fill="#00E5FF" stroke="#651FFF" stroke-linecap="round" stroke-linejoin="round"/>
<path d="M421.874 168.935C421.874 172.704 418.989 175.586 415.216 175.586H269.414C265.641 175.586 262.756 172.704 262.756 168.935V74.2695C262.756 70.5006 265.641 67.6185 269.414 67.6185H415.216C418.989 67.6185 421.874 70.5006 421.874 74.2695V168.935Z" fill="#D4DEE6" stroke="#651FFF" stroke-linecap="round" stroke-linejoin="round"/>
<path d="M434.745 181.572C434.745 185.341 431.86 188.223 428.088 188.223H282.285C278.512 188.223 275.627 185.341 275.627 181.572V87.1281C275.627 83.3592 278.512 80.4771 282.285 80.4771H428.088C431.86 80.4771 434.745 83.3592 434.745 87.1281V181.572Z" fill="white" stroke="#651FFF" stroke-linecap="round" stroke-linejoin="round"/>
<path d="M364.618 109.742C358.182 100.43 347.53 94.2225 335.324 94.2225V129.473L364.618 109.742Z" fill="#00E5FF" stroke="#651FFF" stroke-linecap="round" stroke-linejoin="round"/>
<path d="M368.835 154.747C372.163 149.426 374.161 142.996 374.161 136.345C374.161 129.029 371.942 122.157 368.169 116.614L338.875 136.345C338.875 136.345 354.854 146.1 368.835 154.747Z" fill="#ECECFE" stroke="#651FFF" stroke-linecap="round" stroke-linejoin="round"/>
<path d="M331.996 139.006C331.996 139.006 319.346 152.973 308.25 165.167C314.464 170.931 322.897 174.478 331.996 174.478C344.645 174.478 355.741 167.827 361.955 157.629C348.196 148.982 331.996 139.006 331.996 139.006Z" fill="#81D678" stroke="#651FFF" stroke-linecap="round" stroke-linejoin="round"/>
<path d="M326.004 96.6613C306.474 96.6613 290.718 112.402 290.718 131.912C290.718 142.331 295.156 151.643 302.258 158.072C313.354 145.879 326.004 131.912 326.004 131.912V96.6613Z" fill="#F8D12E" stroke="#651FFF" stroke-linecap="round" stroke-linejoin="round"/>
<path d="M392.802 113.732H419.655" stroke="#651FFF" stroke-linecap="round" stroke-linejoin="round"/>
<path d="M392.802 122.6H419.655" stroke="#651FFF" stroke-linecap="round" stroke-linejoin="round"/>
<path d="M392.802 131.468H419.655" stroke="#651FFF" stroke-linecap="round" stroke-linejoin="round"/>
<path d="M392.802 140.336H419.655" stroke="#651FFF" stroke-linecap="round" stroke-linejoin="round"/>
<path d="M392.802 149.204H419.655" stroke="#651FFF" stroke-linecap="round" stroke-linejoin="round"/>
<path d="M464.483 125.039H459.379V119.718C459.379 118.166 458.047 116.614 456.494 116.614C454.94 116.614 453.609 117.944 453.609 119.718V124.817H448.283C446.729 124.817 445.398 126.147 445.398 127.699C445.398 129.251 446.729 130.803 448.283 130.803H453.387V135.902C453.387 137.454 454.718 138.784 456.272 138.784C457.825 138.784 459.157 137.454 459.157 135.902V130.803H464.261C465.815 130.803 467.146 129.473 467.146 127.699C467.368 126.369 466.036 125.039 464.483 125.039Z" fill="#ECECFE"/>
<path d="M944.279 462.91H939.174V457.81C939.174 456.259 937.843 454.928 936.289 454.928C934.736 454.928 933.183 456.259 933.183 457.81V462.91H928.078C926.525 462.91 925.193 464.24 925.193 465.792C925.193 467.344 926.525 468.895 928.078 468.895H933.183V473.995C933.183 475.546 934.514 476.877 936.289 476.877C937.843 476.877 939.174 475.546 939.174 473.995V468.895H944.279C945.832 468.895 947.164 467.565 947.164 465.792C947.386 464.24 946.054 462.91 944.279 462.91Z" fill="#F8D12E"/>
<path d="M268.97 36.5805L265.419 33.0333L268.97 29.4861C270.079 28.3776 270.079 26.3823 268.97 25.2738C267.86 24.1653 265.863 24.1653 264.753 25.2738L261.202 28.821L257.652 25.2738C256.542 24.1653 254.545 24.1653 253.435 25.2738C252.325 26.3823 252.325 28.3776 253.435 29.4861L256.986 33.0333L253.435 36.5805C252.325 37.689 252.325 39.6843 253.435 40.7928C254.545 41.9013 256.542 41.9013 257.652 40.7928L261.202 37.2456L264.753 40.7928C265.863 41.9013 267.86 41.9013 268.97 40.7928C270.079 39.4626 270.079 37.689 268.97 36.5805Z" fill="#00E5FF"/>
<path d="M667.32 94.2225C667.32 99.765 662.881 104.421 657.111 104.421C651.563 104.421 646.903 99.9867 646.903 94.2225C646.903 88.68 651.341 84.0243 657.111 84.0243C662.881 84.246 667.32 88.68 667.32 94.2225Z" stroke="#00E5FF" stroke-miterlimit="10"/>
<path d="M946.276 291.757C946.276 297.3 941.837 301.955 936.067 301.955C930.298 301.955 925.859 297.521 925.859 291.757C925.859 286.215 930.298 281.559 936.067 281.559C941.837 281.559 946.276 286.215 946.276 291.757Z" stroke="#A7D678" stroke-miterlimit="10" stroke-linecap="round" stroke-linejoin="round"/>
<path d="M647.791 1.10852L658.221 6.42932L648.457 12.6369L647.791 1.10852Z" stroke="#651FFF" stroke-miterlimit="10" stroke-linejoin="round"/>
<path d="M29.7375 439.409L39.946 444.508L30.1814 450.716L29.7375 439.409Z" stroke="#651FFF" stroke-miterlimit="10" stroke-linejoin="round"/>
<path d="M107.854 107.525C116.953 107.525 116.953 116.171 126.274 116.171C135.372 116.171 135.372 107.525 144.693 107.525C153.792 107.525 153.792 116.171 163.113 116.171C172.433 116.171 172.211 107.525 181.532 107.525C190.631 107.525 190.631 116.171 199.952 116.171C209.05 116.171 209.051 107.525 218.371 107.525" stroke="#00E5FF" stroke-miterlimit="10"/>
<path d="M836.203 168.049C845.301 168.049 845.301 176.695 854.622 176.695C863.721 176.695 863.721 168.049 873.042 168.049C882.141 168.049 882.141 176.695 891.461 176.695C900.56 176.695 900.56 168.049 909.881 168.049C918.98 168.049 918.98 176.695 928.3 176.695C937.399 176.695 937.399 168.049 946.72 168.049" stroke="#651FFF" stroke-miterlimit="10" stroke-linecap="round" stroke-linejoin="round"/>
<path d="M57.0339 341.196C66.1327 341.196 66.1327 349.843 75.4535 349.843C84.7742 349.843 84.5523 341.196 93.873 341.196C102.972 341.196 102.972 349.843 112.293 349.843C121.391 349.843 121.391 341.196 130.712 341.196C139.811 341.196 139.811 349.843 149.132 349.843C158.23 349.843 158.23 341.196 167.551 341.196" stroke="#A7D678" stroke-miterlimit="10" stroke-linecap="round" stroke-linejoin="round"/>
</g>
<defs>
<clipPath id="clip0_0_532">
<rect width="986" height="566" fill="white"/>
</clipPath>
</defs>
</svg>
