<svg width="160" height="28" viewBox="0 0 160 28" fill="none" xmlns="http://www.w3.org/2000/svg">
<g clip-path="url(#clip0_38_13)">
<path fill-rule="evenodd" clip-rule="evenodd" d="M0 14C0 6.26803 6.26803 0 14 0C21.732 0 28 6.26803 28 14C28 21.732 21.732 28 14 28C6.26803 28 0 21.732 0 14ZM15.4593 22.2317V14.6149H17.5618L17.8404 11.9902H15.4593L15.4628 10.6765C15.4628 9.99186 15.5279 9.62506 16.5111 9.62506H17.8256V7H15.7227C13.1968 7 12.3078 8.2733 12.3078 10.4146V11.9905H10.7333V14.6152H12.3078V22.2317H15.4593Z" fill="#FFFCF7"/>
</g>
<g clip-path="url(#clip1_38_13)">
<path fill-rule="evenodd" clip-rule="evenodd" d="M44 14C44 6.26803 50.268 0 58 0C65.732 0 72 6.26803 72 14C72 21.732 65.732 28 58 28C50.268 28 44 21.732 44 14ZM57.5807 11.3794L57.6101 11.8638L57.1205 11.8045C55.3382 11.5771 53.7812 10.806 52.4591 9.51084L51.8128 8.86824L51.6463 9.34278C51.2938 10.4006 51.519 11.5178 52.2535 12.2691C52.6452 12.6844 52.557 12.7437 51.8814 12.4965C51.6463 12.4174 51.4406 12.3581 51.4211 12.3878C51.3526 12.457 51.5875 13.3566 51.7736 13.7125C52.0282 14.2069 52.5472 14.6913 53.1152 14.978L53.5951 15.2054L53.0271 15.2153C52.4787 15.2153 52.4591 15.2252 52.5179 15.4328C52.7137 16.0754 53.4873 16.7575 54.3491 17.0542L54.9563 17.2618L54.4274 17.5781C53.644 18.0329 52.7235 18.2899 51.803 18.3097C51.3623 18.3196 51 18.3591 51 18.3888C51 18.4876 52.1947 19.0413 52.89 19.2588C54.9758 19.9014 57.4534 19.6246 59.314 18.5272C60.636 17.7462 61.958 16.194 62.575 14.6913C62.9079 13.8905 63.2409 12.4273 63.2409 11.7254C63.2409 11.2706 63.2702 11.2113 63.8186 10.6675C64.1418 10.3512 64.4454 10.0052 64.5042 9.90628C64.6021 9.71845 64.5923 9.71845 64.0929 9.88651C63.2605 10.1831 63.143 10.1436 63.5543 9.69868C63.8578 9.38233 64.2201 8.80892 64.2201 8.64086C64.2201 8.61117 64.0733 8.66063 63.9068 8.74959C63.7305 8.84847 63.3388 8.99675 63.045 9.08577L62.5162 9.25382L62.0364 8.92757C61.772 8.74959 61.3998 8.5519 61.204 8.49257C60.7046 8.35415 59.9407 8.37393 59.4903 8.53212C58.2662 8.97697 57.4926 10.1238 57.5807 11.3794Z" fill="#FFFCF7"/>
</g>
<g clip-path="url(#clip2_38_13)">
<path fill-rule="evenodd" clip-rule="evenodd" d="M88 14C88 6.26803 94.268 0 102 0C109.732 0 116 6.26803 116 14C116 21.732 109.732 28 102 28C94.268 28 88 21.732 88 14ZM109.155 10.5427C108.983 9.88295 108.477 9.36343 107.834 9.18709C106.67 8.86667 102 8.86667 102 8.86667C102 8.86667 97.3302 8.86667 96.1657 9.18709C95.5231 9.36343 95.017 9.88295 94.8453 10.5427C94.5333 11.7384 94.5333 14.2333 94.5333 14.2333C94.5333 14.2333 94.5333 16.7281 94.8453 17.924C95.017 18.5837 95.5231 19.1032 96.1657 19.2796C97.3302 19.6 102 19.6 102 19.6C102 19.6 106.67 19.6 107.834 19.2796C108.477 19.1032 108.983 18.5837 109.155 17.924C109.467 16.7281 109.467 14.2333 109.467 14.2333C109.467 14.2333 109.467 11.7384 109.155 10.5427Z" fill="#FFFCF7"/>
<path fill-rule="evenodd" clip-rule="evenodd" d="M100.6 16.8V12.1333L104.333 14.4667L100.6 16.8Z" fill="#FFFCF7"/>
</g>
<g clip-path="url(#clip3_38_13)">
<path fill-rule="evenodd" clip-rule="evenodd" d="M160 14C160 21.732 153.732 28 146 28C138.268 28 132 21.732 132 14C132 6.26803 138.268 0 146 0C153.732 0 160 6.26803 160 14ZM138.645 8.8865C138.816 9.04435 138.903 9.27611 138.88 9.51061V17.9544C138.931 18.259 138.837 18.5701 138.627 18.7925L136.667 21.2267V21.5477H142.227V21.2267L140.266 18.7925C140.055 18.5705 139.955 18.2614 139.996 17.9544V10.6519L144.876 21.5477H145.442L149.634 10.6519V19.3364C149.634 19.5683 149.634 19.6128 149.486 19.7644L147.978 21.2623V21.5833H155.298V21.2623L153.843 19.8001C153.715 19.6999 153.651 19.5351 153.678 19.3721V8.62791C153.651 8.46487 153.715 8.30013 153.843 8.19992L155.333 6.73767V6.41667H150.174L146.497 15.8055L142.314 6.41667H136.902V6.73767L138.645 8.8865Z" fill="#FFFCF7"/>
</g>
<defs>
<clipPath id="clip0_38_13">
<rect width="28" height="28" fill="white"/>
</clipPath>
<clipPath id="clip1_38_13">
<rect width="28" height="28" fill="white" transform="translate(44)"/>
</clipPath>
<clipPath id="clip2_38_13">
<rect width="28" height="28" fill="white" transform="translate(88)"/>
</clipPath>
<clipPath id="clip3_38_13">
<rect width="28" height="28" fill="white" transform="translate(132)"/>
</clipPath>
</defs>
</svg>
