<svg width="16" height="16" viewBox="0 0 16 16" fill="none" xmlns="http://www.w3.org/2000/svg">
  <path d="M15.2051 8.00732C14.9928 8.00732 14.7893 8.09163 14.6392 8.24171C14.4891 8.39179 14.4048 8.59534 14.4048 8.80759V13.6092C14.4048 13.8214 14.3205 14.025 14.1704 14.1751C14.0204 14.3252 13.8168 14.4095 13.6046 14.4095H2.4008C2.18856 14.4095 1.98501 14.3252 1.83493 14.1751C1.68485 14.025 1.60054 13.8214 1.60054 13.6092V2.40544C1.60054 2.1932 1.68485 1.98965 1.83493 1.83957C1.98501 1.68949 2.18856 1.60518 2.4008 1.60518H7.20241C7.41466 1.60518 7.61821 1.52086 7.76829 1.37078C7.91837 1.2207 8.00268 1.01715 8.00268 0.804908C8.00268 0.592664 7.91837 0.389113 7.76829 0.239033C7.61821 0.0889539 7.41466 0.00464023 7.20241 0.00464023H2.4008C1.76407 0.00464023 1.15342 0.257581 0.703179 0.70782C0.252941 1.15806 0 1.76871 0 2.40544V13.6092C0 14.2459 0.252941 14.8566 0.703179 15.3068C1.15342 15.7571 1.76407 16.01 2.4008 16.01H13.6046C14.2413 16.01 14.8519 15.7571 15.3022 15.3068C15.7524 14.8566 16.0054 14.2459 16.0054 13.6092V8.80759C16.0054 8.59534 15.921 8.39179 15.771 8.24171C15.6209 8.09163 15.4173 8.00732 15.2051 8.00732ZM3.20107 8.61552V12.0087C3.20107 12.2209 3.28539 12.4245 3.43547 12.5745C3.58554 12.7246 3.7891 12.8089 4.00134 12.8089H7.39448C7.4998 12.8095 7.6042 12.7894 7.7017 12.7495C7.79921 12.7097 7.88789 12.651 7.96267 12.5768L13.5005 7.03099L15.7733 4.80625C15.8483 4.73185 15.9078 4.64334 15.9485 4.54582C15.9891 4.4483 16.01 4.3437 16.01 4.23806C16.01 4.13241 15.9891 4.02781 15.9485 3.93029C15.9078 3.83277 15.8483 3.74426 15.7733 3.66987L12.3801 0.236718C12.3057 0.16171 12.2172 0.102175 12.1197 0.0615461C12.0222 0.0209176 11.9176 0 11.812 0C11.7063 0 11.6017 0.0209176 11.5042 0.0615461C11.4067 0.102175 11.3182 0.16171 11.2438 0.236718L8.98701 2.50148L3.43315 8.04733C3.35898 8.12211 3.3003 8.21079 3.26047 8.3083C3.22065 8.4058 3.20046 8.5102 3.20107 8.61552ZM11.812 1.93329L14.0767 4.19804L12.9403 5.33442L10.6756 3.06967L11.812 1.93329ZM4.80161 8.94363L9.5472 4.19804L11.812 6.4628L7.06637 11.2084H4.80161V8.94363Z" fill="#8146FF"/>
</svg>
