<svg width="15" height="15" viewBox="0 0 15 15" fill="none" xmlns="http://www.w3.org/2000/svg">
  <g clip-path="url(#clip0_5_314)">
    <path d="M14.5872 4.16309L13.2366 5.51367C13.0989 5.65137 12.8763 5.65137 12.7386 5.51367L9.48661 2.26172C9.34892 2.12402 9.34892 1.90137 9.48661 1.76367L10.8372 0.413086C11.385 -0.134766 12.2757 -0.134766 12.8265 0.413086L14.5872 2.17383C15.138 2.72168 15.138 3.61231 14.5872 4.16309ZM8.32646 2.92383L0.633095 10.6172L0.0120011 14.1768C-0.0729598 14.6572 0.345986 15.0732 0.826454 14.9912L4.38602 14.3672L12.0794 6.67383C12.2171 6.53613 12.2171 6.31348 12.0794 6.17578L8.82743 2.92383C8.68681 2.78613 8.46415 2.78613 8.32646 2.92383ZM3.63602 9.95801C3.47489 9.79688 3.47489 9.53906 3.63602 9.37793L8.14774 4.86621C8.30888 4.70508 8.56669 4.70508 8.72782 4.86621C8.88895 5.02734 8.88895 5.28516 8.72782 5.44629L4.2161 9.95801C4.05497 10.1191 3.79716 10.1191 3.63602 9.95801ZM2.57841 12.4219H3.98466V13.4854L2.09501 13.8164L1.18388 12.9053L1.51493 11.0156H2.57841V12.4219Z" fill="white"/>
  </g>
  <defs>
    <clipPath id="clip0_5_314">
      <rect width="15" height="15"/>
    </clipPath>
  </defs>
</svg>
